<?xml version="1.0" encoding="UTF-8" standalone="no"?>
<!-- Created with Inkscape (http://www.inkscape.org/) -->

<svg
   xmlns:dc="http://purl.org/dc/elements/1.1/"
   xmlns:cc="http://creativecommons.org/ns#"
   xmlns:rdf="http://www.w3.org/1999/02/22-rdf-syntax-ns#"
   xmlns:svg="http://www.w3.org/2000/svg"
   xmlns="http://www.w3.org/2000/svg"
   xmlns:sodipodi="http://sodipodi.sourceforge.net/DTD/sodipodi-0.dtd"
   xmlns:inkscape="http://www.inkscape.org/namespaces/inkscape"
   version="1.1"
   width="400"
   height="500"
   id="svg4402"
   inkscape:version="0.48.1 "
   sodipodi:docname="Dragon silhouette.svg">
  <sodipodi:namedview
     pagecolor="#ffffff"
     bordercolor="#666666"
     borderopacity="1"
     objecttolerance="10"
     gridtolerance="10"
     guidetolerance="10"
     inkscape:pageopacity="0"
     inkscape:pageshadow="2"
     inkscape:window-width="1280"
     inkscape:window-height="738"
     id="namedview7"
     showgrid="false"
     inkscape:zoom="1.038"
     inkscape:cx="200"
     inkscape:cy="250"
     inkscape:window-x="-8"
     inkscape:window-y="-8"
     inkscape:window-maximized="1"
     inkscape:current-layer="svg4402" />
  <defs
     id="defs4404" />
  <metadata
     id="metadata4407">
    <rdf:RDF>
      <cc:Work
         rdf:about="">
        <dc:format>image/svg+xml</dc:format>
        <dc:type
           rdf:resource="http://purl.org/dc/dcmitype/StillImage" />
        <dc:title />
      </cc:Work>
    </rdf:RDF>
  </metadata>
  <g
     id="layer1"
     transform="matrix(0.80364079,0,0,0.80717071,-98.992373,-174.71797)">
    <path
       d="m 593.47822,219.55504 c -2.25807,0.0193 -4.77679,0.56221 -7.53125,1.75 -45.84469,17.97964 -65.05681,83.96565 -137.75,81.34375 -21.09319,-4.45882 -36.78699,1.68519 -30.34375,39.74999 9.77446,54.85948 8.32884,91.62737 -9.78125,112.37501 -21.36333,24.47481 -55.37876,24.63312 -73.65625,-3.34375 -9.26945,-9.33909 -18.9387,-9.11647 -26.53125,0 -15.64055,24.41561 8.71223,39.78969 3.15625,67.03125 -8.41169,-5.29857 -14.57656,-6.63112 -21.59375,-7.09375 -5.5378,-11.77179 -7.74458,-13.37703 -13.8125,-19.0625 8.66143,-20.48715 8.10347,-29.88895 8.96875,-41.21875 8.76356,-6.29515 18.83528,-17.33568 26.34375,-27.15625 37.52112,-27.90217 88.99629,-47.96238 76.04389,-118.68818 26.3091,-1.4809 47.11917,-4.27628 61.65422,-16.41753 14.53504,-12.14125 11.51359,-38.33677 -4.67216,-35.47608 20.64346,44.71137 -81.64367,31.56812 -104.9947,31.11304 72.09878,-10.83707 80.50832,-11.28126 91.2227,-26.08574 10.71438,-14.80449 1.69581,-38.36049 -13.94145,-34.00801 26.62376,49.5942 -62.85953,27.23064 -120.78125,46.59375 -10.88296,-16.01469 -25.9232,-14.1402 -33.65625,-2.9375 -31.65293,18.69012 -50.03214,-8.60957 -70.625,5.96875 -3.61625,2.7057 -5.97204,9.44645 -6.5625,17.15625 -0.30164,3.93849 2.51067,7.58089 4.59375,10.53125 -1.4065,7.63563 1.53054,18.90996 8.90625,21.93749 -2.33163,-15.88322 6.50375,-32.39813 27.75,-13.43749 5.04133,-1.22166 12.72753,-0.271 20.53125,7.03125 -53.2565,16.21848 -52.83151,30.35097 -95.71875,1.09375 l 27.5,-1.03125 -51.90625,-12.21875 22.375,36.65624 -1,-16.28125 c 54.31568,38.48701 54.10606,8.67389 98.5625,6.625 l -9.96875,14.84376 c -9.24585,9.47324 -30.05153,29.6788 -17.25,40.53125 9.89641,6.46164 38.36742,-43.2093 71.25,-40.5 19.45987,2.25454 29.32911,-35.77726 49.95487,-27.47984 -7.53766,70.48564 -115.49303,39.65162 -174.54862,149.29234 -33.59026,80.1096 27.87627,135.41666 71.4375,159.9375 2.7875,14.50458 -16.69685,33.3929 -22.125,52.5625 -17.04222,-28.94097 -6.55421,-77.63181 -33.40625,-77.34375 0.0153,-0.0444 0.0474,-0.0805 0.0625,-0.125 -11.30525,-8.33415 -20.06947,-8.18563 -26.88598,5.7978 8.56014,-3.41959 12.79484,-0.65397 14.04223,4.60845 0.10806,0.007 0.3125,0 0.3125,0 -2.36723,13.81758 6.64115,22.45971 17.4375,21.37495 13.55343,13.01249 5.74797,29.72877 15.15625,45.6875 -9.33329,-7.50646 -19.40208,-8.28074 -27.1875,-30.21875 -1.94131,-13.67576 -7.21738,-17.72262 -17.49441,-19.99075 -13.22323,-14.85242 -24.53636,4.93563 -25.7051,7.63146 -1.19356,2.75307 12.53151,-8.46404 16.04566,6.02108 -4.67291,4.80434 6.10602,24.1409 19.59135,23.27571 1.52187,8.34765 15.51246,16.71485 26.53125,25.0625 -21.69341,10.45363 -37.34573,-13.09045 -51.78125,9.40625 -0.0413,10e-4 -0.0836,-0.002 -0.125,0 -18.66019,6.81847 -9.94528,24.88541 -5.4375,29.75 0.16407,-5.62124 2.93814,-13.90155 12.84375,-13.375 5.78572,3.89925 11.96588,5.10172 21.75,-6.65625 19.17085,-4.93929 38.36042,-9.00185 57.53125,11.0625 -1.66602,11.71788 -5.80402,24.14234 12,30.1875 3.97315,6.221 7.98264,10.08538 5.09375,21.75 13.43918,-5.24953 16.73428,-18.87998 9.84375,-31.40625 1.10654,-4.37287 0.70633,-7.98901 -0.84375,-11.0937 1.84599,-2.01347 4.3999,-2.73059 10.09375,-0.53125 1.10077,7.17603 14.58874,6.58089 22.3125,4.09375 7.71224,4.66001 18.65262,7.46864 34.09375,7.625 -9.16568,6.48888 -15.5531,14.60556 -31.90625,16.90625 -13.54832,1.24368 -18.29428,10.74918 -18.25,16.15625 -10.50953,6.67784 -11.23675,26.43147 4.75,27.15625 -1.83932,-5.8686 -1.70747,-11.88353 5.15625,-14.875 8.4763,0.23744 15.27119,-7.40562 18.5,-13.65625 10.88625,-6.08903 24.37618,-10.45922 29,-20.71875 -1.60404,11.98356 -2.73505,23.78774 -1.46875,34.65625 -6.69554,6.34827 -5.3929,17.69438 0.64197,23.74586 0.86134,8.25078 1.34893,28.96378 20.76428,14.37914 -4.66826,-3.91791 -8.15939,-4.39818 -5.6875,-15.15625 7.36274,-9.8875 4.18727,-18.05947 0.007,-23.65637 -2.19717,-14.07186 -0.10006,-26.09489 6.46183,-31.71863 9.9493,2.05403 19.54968,2.42129 27.84375,-2.59375 7.45261,4.58604 14.50919,4.92635 21.15625,1.0625 7.26748,-2.62046 13.30549,2.02784 16.625,7.03125 8.83736,-16.23695 -1.74629,-25.86498 -15.25,-25.34375 -3.83819,-7.16722 -15.46626,-8.9188 -22.52257,-2.93448 -7.05631,5.98432 -10.87274,4.01694 -18.44618,4.68448 -9.31358,-0.29495 -14.6398,-5.22363 -15.09375,-15.84375 -9.99676,-30.4338 -19.55817,-60.89747 -13,-92.25 34.65039,-4.96268 69.39974,-11.30618 104.84375,-29.21875 16.91087,-2.25015 34.7191,-1.16198 54.375,4.9375 l 19.5,15.59375 1.65625,32.28125 -16.9375,19.375 -22.03125,8.4375 -17.53125,-13.375 -1.8125,-19.71875 9.0625,-22.15625 13.90625,-20.21791 c -14.7223,-3.43242 -27.40245,-3.02354 -38.95861,-1.8437 l -15.72889,17.81161 -11.46875,29.21875 0,36.625 17.8125,29.59375 22.65625,20.0625 29.625,3.25 c 10.51023,-8.97991 22.73346,-11.52271 36,-10.0625 5.64311,-6.66667 11.47188,-11.28563 17.78125,-14.375 -0.0226,0.0367 -0.46875,4.78125 -0.46875,4.78125 -6.10977,42.8474 -33.44068,58.9767 -54.875,67.0625 12.71891,-7.70839 16.27707,-14.3975 14.125,-25.875 -22.6286,-18.20232 -40.4523,23.26159 -69.5625,26.03125 29.24822,12.25591 43.95317,63.6596 74.25,35.3125 -1.23638,-24.24962 -15.28163,-21.9482 -20.1875,-23.65625 40.50391,5.80043 96.49249,-36.09497 85.84375,-125.1875 2.78786,-3.93311 6.03695,-7.24774 9.6875,-10.03125 -8.84526,-25.37407 -11.38995,-48.90575 4,-67.21875 -21.01058,-18.00152 -31.74843,-38.58003 -31.4375,-61.90625 -23.66876,2.63222 -43.36953,-0.44134 -47.40625,-25.96875 -11.78885,8.21356 -23.39982,13.87323 -33.6875,-0.65625 -9.51881,13.21364 -31.56827,9.24349 -36.78125,5.21875 -8.72789,10.91178 -27.23443,16.88942 -38.21875,7.375 -11.0736,12.33293 -21.60489,14.95085 -26.65625,2.71875 2.83597,-31.33084 65.31567,-24.0774 81.65625,-10.8125 -0.25,-37.47874 42.72928,-34.79967 82.8125,-11.75 13.53758,12.74286 42.09028,15.06977 42.84375,-16.09375 -5.07342,10.21129 -18.00267,11.11779 -21.90625,-1.09375 1.54991,-34.77512 43.73279,-24.96706 61.40625,-29.40625 14.53386,-1.62201 10.18168,-26.60035 1.4375,-26.0625 -0.71063,7.52945 -5.9684,12.05031 -17.625,5.53125 -17.6646,-10.73816 -15.57771,-56.34121 2.875,-62.65625 14.27655,-4.92592 16.46573,-45.38534 -2.375,-45.50001 3.79775,24.547 -7.97454,26.24479 -17.15625,17.75001 -14.13751,-21.32347 -12.6065,-69.99396 8.5625,-101.5 5.72363,-4.28873 11.5807,-8.30761 24.75,3.3125 1.85462,-12.14599 -3.11891,-27.35442 -15.3125,-27.25 z m -315.78125,57.53125 c 2.12902,-0.0343 4.45825,0.47678 6.84375,1.78125 5.79251,3.16747 4.02082,8.70948 -4.08091,9.92626 -1.66542,-13.25024 -5.14637,-12.56292 -6.00677,1.07201 -17.8963,3.63602 -8.2528,-12.59417 3.24393,-12.77952 z m -12.71875,352.875 c 3.5915,-0.23705 8.16264,2.99291 12.5625,5.59375 19.0993,29.46226 37.70035,58.10024 43.96875,87.5625 -11.89903,3.34575 -24.04488,2.23267 -36.90625,-10.125 -10.51329,-6.5949 -19.20402,-4.25278 -21.53125,2.46875 -8.05985,-0.43806 -14.08763,2.03234 -15.8125,7.53125 -1.31041,-1.11374 -2.63519,-2.21389 -3.84375,-3.46875 -6.10659,-6.14125 -10.44083,-14.34653 -19.59375,-16.9375 2.5039,-26.98091 26.95521,-23.80612 34.75,-61.125 0.82921,-8.37926 3.23728,-11.29084 6.40625,-11.5 z"
       id="path3849"
       style="fill:#000000;fill-rule:evenodd;stroke:none"
       inkscape:connector-curvature="0"
       sodipodi:nodetypes="ccccscccccccczcczccccsccccccccccccccccccccccccccscccccccccccccccccccccccccccccccczccccccccccccccccccccccccccccccccccccccccccccccccccccscccsccccccccs" />
  </g>
</svg>
