<?xml version="1.0" encoding="UTF-8" standalone="no"?>
<!-- Created with Inkscape (http://www.inkscape.org/) -->

<svg
   xmlns:dc="http://purl.org/dc/elements/1.1/"
   xmlns:cc="http://creativecommons.org/ns#"
   xmlns:rdf="http://www.w3.org/1999/02/22-rdf-syntax-ns#"
   xmlns:svg="http://www.w3.org/2000/svg"
   xmlns="http://www.w3.org/2000/svg"
   xmlns:sodipodi="http://sodipodi.sourceforge.net/DTD/sodipodi-0.dtd"
   xmlns:inkscape="http://www.inkscape.org/namespaces/inkscape"
   version="1.1"
   id="svg2796"
   xml:space="preserve"
   width="816"
   height="816"
   viewBox="0 0 816 816"
   sodipodi:docname="phoenix-publicdomainvectors.org.svg"
   inkscape:version="0.92.4 (5da689c313, 2019-01-14)"><metadata
     id="metadata2802"><rdf:RDF><cc:Work
         rdf:about=""><dc:format>image/svg+xml</dc:format><dc:type
           rdf:resource="http://purl.org/dc/dcmitype/StillImage" /><dc:title></dc:title></cc:Work></rdf:RDF></metadata><defs
     id="defs2800"><clipPath
       clipPathUnits="userSpaceOnUse"
       id="clipPath2812"><path
         d="M 0,612 H 612 V 0 H 0 Z"
         id="path2810"
         inkscape:connector-curvature="0" /></clipPath></defs><sodipodi:namedview
     pagecolor="#ffffff"
     bordercolor="#666666"
     borderopacity="1"
     objecttolerance="10"
     gridtolerance="10"
     guidetolerance="10"
     inkscape:pageopacity="0"
     inkscape:pageshadow="2"
     inkscape:window-width="1920"
     inkscape:window-height="1018"
     id="namedview2798"
     showgrid="false"
     inkscape:zoom="0.8896526"
     inkscape:cx="418.37288"
     inkscape:cy="411.45763"
     inkscape:window-x="-8"
     inkscape:window-y="-8"
     inkscape:window-maximized="1"
     inkscape:current-layer="g2804" /><g
     id="g2804"
     inkscape:groupmode="layer"
     inkscape:label="phoenix-publicdomainvectors.org"
     transform="matrix(1.3333333,0,0,-1.3333333,0,816)"><g
       id="g2806"><g
         id="g2808"
         clip-path="url(#clipPath2812)"><path
           d="m 440.088,431.146 c -2.518,-0.364 -4.971,-0.893 -7.416,-1.343 -2.391,-0.609 -4.828,-0.944 -7.076,-1.592 -4.557,-1.133 -8.75,-2.397 -12.242,-3.791 -1.793,-0.614 -3.325,-1.394 -4.733,-2.031 -1.428,-0.617 -2.639,-1.222 -3.58,-1.822 -1.992,-1.097 -3.129,-1.722 -3.129,-1.722 0,0 0.887,0.96 2.434,2.641 0.773,0.868 1.787,1.843 3.092,2.778 1.263,0.991 2.677,2.187 4.421,3.131 1.692,1.051 3.557,2.165 5.657,3.038 2.048,1.019 4.283,1.887 6.632,2.673 4.678,1.643 9.817,2.817 14.944,3.743 10.303,1.772 20.566,2.285 28.176,2.913 3.836,0.314 6.929,0.702 9.15,1.038 2.232,0.466 3.506,0.736 3.506,0.736 0,0 -1.123,-0.657 -3.09,-1.807 -2.08,-0.975 -5.205,-2.237 -8.977,-3.228 -7.578,-2.108 -17.804,-3.595 -27.769,-5.355 m 3.164,-21.818 c -2.967,-0.138 -6.408,-0.165 -10.051,-0.209 -3.646,-0.08 -7.506,-0.036 -11.318,-0.293 -3.832,-0.056 -7.574,-0.535 -11.082,-0.958 -1.705,-0.381 -3.446,-0.497 -4.979,-0.955 -1.57,-0.367 -3.056,-0.734 -4.377,-1.225 -1.371,-0.401 -2.562,-0.907 -3.617,-1.403 -1.08,-0.459 -2.039,-0.872 -2.738,-1.353 -1.527,-0.859 -2.401,-1.348 -2.401,-1.348 0,0 0.553,0.815 1.665,2.233 0.527,0.747 1.281,1.53 2.257,2.323 0.928,0.861 2.028,1.795 3.389,2.544 2.594,1.789 6.025,3.1 9.746,4.178 1.877,0.423 3.82,0.963 5.822,1.179 1.998,0.247 4.026,0.483 6.051,0.571 8.135,0.374 16.072,-0.799 21.902,-1.981 5.813,-1.222 9.694,-2.316 9.69,-2.316 0,0.003 -4.002,-0.842 -9.959,-0.987 m -11.104,-18.184 c -6.08,0.56 -14.033,1.787 -21.896,2.694 -3.924,0.509 -7.85,0.877 -11.498,1.066 -1.838,0.143 -3.563,0.055 -5.252,0.135 -1.631,-0.132 -3.229,-0.13 -4.654,-0.304 -1.369,-0.317 -2.799,-0.295 -3.869,-0.723 -1.077,-0.407 -2.204,-0.531 -2.922,-0.976 -1.592,-0.803 -2.502,-1.26 -2.502,-1.26 0,0 0.595,0.792 1.851,2.212 0.608,0.747 1.594,1.276 2.678,2.052 1.072,0.84 2.471,1.247 3.965,1.924 1.508,0.576 3.195,0.975 4.994,1.378 1.785,0.223 3.711,0.666 5.67,0.666 3.949,0.303 8.111,-0.009 12.228,-0.422 8.225,-0.992 16.129,-3.211 21.913,-5.206 5.769,-2.013 9.558,-3.666 9.558,-3.666 0,0.002 -4.185,-0.243 -10.264,0.43 m -34.964,-9.277 c -6.211,1.003 -12.418,1.537 -17.075,1.336 -2.332,-0.063 -4.295,-0.308 -5.636,-0.655 -1.332,-0.363 -2.166,-0.537 -2.166,-0.537 0,0 0.621,0.5 1.841,1.317 0.596,0.45 1.409,0.765 2.338,1.195 0.924,0.476 2.01,0.86 3.233,1.143 2.424,0.723 5.342,1.042 8.451,1.147 3.109,0.082 6.41,-0.195 9.658,-0.651 6.492,-1.005 12.762,-2.947 17.24,-4.952 2.258,-0.965 4.03,-2.008 5.286,-2.731 1.232,-0.733 1.851,-1.278 1.851,-1.278 0,0 -3.166,0.801 -7.881,1.64 -4.697,0.92 -10.931,2.097 -17.14,3.026 m -2.729,-16.193 c -3.973,1.909 -9.244,4.425 -14.601,6.553 -2.659,1.118 -5.395,1.965 -7.969,2.682 -1.303,0.226 -2.547,0.682 -3.752,0.789 -1.205,0.199 -2.354,0.353 -3.414,0.309 -1.069,0.052 -2.039,0.017 -2.901,-0.123 -0.869,-0.079 -1.644,-0.158 -2.23,-0.401 -1.238,-0.355 -1.949,-0.557 -1.949,-0.557 0,0 0.632,0.394 1.746,1.081 0.556,0.388 1.31,0.646 2.193,0.931 0.881,0.354 1.899,0.628 3.047,0.696 2.283,0.344 4.982,0.223 7.797,-0.228 2.803,-0.517 5.709,-1.382 8.498,-2.485 5.601,-2.192 10.695,-5.325 14.346,-7.839 3.642,-2.54 5.957,-4.394 5.957,-4.394 0,0 -0.707,0.236 -1.901,0.75 -1.179,0.549 -2.894,1.257 -4.867,2.236 M 361.4,362.888 c -2.66,1.117 -5.394,1.967 -7.968,2.681 -1.303,0.228 -2.547,0.682 -3.752,0.792 -1.207,0.197 -2.354,0.353 -3.416,0.309 -1.069,0.049 -2.037,0.015 -2.899,-0.124 -0.869,-0.078 -1.644,-0.158 -2.228,-0.4 -1.242,-0.354 -1.951,-0.557 -1.951,-0.557 0,0 0.632,0.392 1.744,1.081 0.556,0.386 1.312,0.643 2.195,0.928 0.879,0.356 1.898,0.63 3.047,0.697 2.281,0.344 4.98,0.224 7.795,-0.229 2.803,-0.514 5.711,-1.381 8.498,-2.483 5.601,-2.194 10.695,-5.324 14.349,-7.839 3.641,-2.54 5.954,-4.394 5.954,-4.394 0,0 -0.705,0.236 -1.899,0.751 -1.18,0.55 -2.896,1.255 -4.867,2.234 -3.975,1.909 -9.246,4.426 -14.602,6.553 m -4.779,-16.107 c -1.178,0.55 -2.894,1.255 -4.867,2.235 -3.975,1.911 -9.244,4.424 -14.6,6.553 -2.66,1.119 -5.396,1.966 -7.97,2.682 -1.303,0.226 -2.545,0.683 -3.752,0.79 -1.205,0.198 -2.354,0.353 -3.416,0.309 -0.342,0.016 -0.657,0.007 -0.979,0.006 l -0.424,1.441 c 0.42,0.085 0.852,0.151 1.313,0.179 2.281,0.344 4.98,0.223 7.795,-0.229 2.802,-0.514 5.711,-1.381 8.498,-2.483 5.601,-2.194 10.695,-5.326 14.347,-7.839 3.641,-2.541 5.955,-4.392 5.955,-4.392 0,0 -0.707,0.234 -1.9,0.748 m -59.413,-7.704 c -3.493,-13.145 -7.214,-26.211 -10.97,-38.901 -2.063,-6.971 -4.135,-13.832 -6.187,-20.522 -0.457,-1.494 -0.917,-2.961 -1.376,-4.435 -2.204,-7.084 -4.429,-13.942 -6.608,-20.528 -1.685,-5.087 -3.342,-10.027 -4.934,-14.761 -1.336,-3.971 -2.625,-7.815 -3.85,-11.504 -5.087,-14.924 -9.325,-27.358 -12.293,-36.065 -2.926,-8.713 -4.265,-13.8 -4.268,-13.8 0,0 0.842,5.205 3.185,14.119 2.371,8.9 5.771,21.609 10.263,36.726 1.76,6.035 3.642,12.49 5.613,19.25 0.273,0.938 0.55,1.887 0.825,2.836 1.261,4.322 2.557,8.77 3.883,13.319 0.935,3.209 1.882,6.457 2.844,9.763 0.629,2.156 1.263,4.33 1.903,6.524 1.922,6.556 3.858,13.277 5.785,20.101 0.556,1.961 1.108,3.935 1.659,5.914 1.872,6.719 3.726,13.521 5.538,20.37 1.147,4.338 2.281,8.69 3.389,13.049 0.766,2.87 1.517,5.742 2.261,8.612 4.503,17.404 8.554,34.775 11.683,51.329 0.457,2.401 0.899,4.785 1.325,7.147 1.622,8.984 3.001,17.66 4.007,25.916 0.851,6.994 1.443,13.691 1.652,19.97 0.315,8.525 0.022,16.327 -0.957,23.003 -0.111,0.759 -0.23,1.505 -0.361,2.235 -0.809,4.576 -1.965,8.557 -3.514,11.775 -0.303,0.643 -0.617,1.247 -0.933,1.83 -1.696,3.124 -3.543,5.386 -5.109,6.707 -0.842,0.895 -1.705,1.341 -2.192,1.747 -0.517,0.374 -0.784,0.567 -0.784,0.567 0,0 0.281,-0.171 0.826,-0.502 0.525,-0.362 1.409,-0.731 2.342,-1.565 1.609,-1.17 3.606,-3.144 5.481,-5.998 0.467,-0.71 0.928,-1.459 1.371,-2.283 1.709,-3.126 3.147,-7.001 4.27,-11.473 0.836,-3.316 1.492,-6.967 1.962,-10.881 0.569,-4.722 0.866,-9.824 0.848,-15.216 -0.004,-1.014 -0.033,-2.067 -0.051,-3.104 -0.115,-6.991 -0.535,-14.419 -1.289,-22.207 -0.883,-9.133 -2.201,-18.724 -3.955,-28.571 -0.152,-0.872 -0.322,-1.755 -0.48,-2.631 -3.387,-18.714 -7.854,-38.351 -12.804,-57.862 m -55.003,31.349 c -5.754,-0.28 -11.554,-0.957 -15.934,-1.476 -2.183,-0.289 -4.035,-0.403 -5.331,-0.54 -1.291,-0.1 -2.038,-0.096 -2.038,-0.096 0,0 2.791,1.002 7.056,2.227 4.27,1.198 10.102,2.516 16.111,2.781 2.996,0.14 6.029,0.022 8.846,-0.4 2.81,-0.481 5.404,-1.242 7.453,-2.303 0.54,-0.222 1.03,-0.482 1.479,-0.768 l -0.823,-1.166 c -0.404,0.148 -0.822,0.292 -1.274,0.424 -0.987,0.386 -2.125,0.609 -3.328,0.811 -1.178,0.289 -2.501,0.263 -3.808,0.468 -2.666,0.153 -5.528,0.237 -8.409,0.038 m -38.438,14.792 c -2.183,-0.289 -4.035,-0.402 -5.33,-0.539 -1.291,-0.102 -2.039,-0.097 -2.039,-0.097 0,0 2.792,1.003 7.056,2.229 4.27,1.198 10.103,2.516 16.111,2.779 2.996,0.141 6.03,0.022 8.846,-0.399 2.81,-0.482 5.404,-1.243 7.453,-2.303 1.061,-0.435 1.941,-1.025 2.653,-1.645 0.747,-0.556 1.376,-1.045 1.777,-1.589 0.832,-1.011 1.305,-1.589 1.305,-1.589 0,0 -0.606,0.421 -1.669,1.158 -0.473,0.419 -1.178,0.748 -1.979,1.103 -0.768,0.409 -1.675,0.753 -2.704,1.051 -0.988,0.386 -2.125,0.608 -3.329,0.812 -1.176,0.29 -2.501,0.264 -3.808,0.466 -2.665,0.156 -5.527,0.239 -8.409,0.04 -5.754,-0.281 -11.554,-0.956 -15.934,-1.477 m -11.478,14.174 c -2.183,-0.288 -4.036,-0.403 -5.332,-0.54 -1.29,-0.102 -2.037,-0.097 -2.037,-0.097 0,0 2.79,1.004 7.056,2.228 4.271,1.199 10.101,2.517 16.11,2.78 2.997,0.141 6.03,0.023 8.847,-0.397 2.809,-0.483 5.404,-1.244 7.453,-2.305 1.061,-0.436 1.941,-1.024 2.653,-1.644 0.747,-0.558 1.376,-1.044 1.777,-1.589 0.831,-1.01 1.305,-1.589 1.305,-1.589 0,0 -0.606,0.422 -1.67,1.157 -0.473,0.419 -1.176,0.748 -1.978,1.104 -0.77,0.409 -1.677,0.754 -2.704,1.05 -0.988,0.388 -2.125,0.609 -3.329,0.812 -1.178,0.289 -2.501,0.263 -3.808,0.467 -2.665,0.154 -5.528,0.238 -8.408,0.041 -5.755,-0.282 -11.555,-0.958 -15.935,-1.478 m -14.541,18.883 c -4.731,0.731 -7.989,0.996 -7.989,0.996 0,0 0.764,0.314 2.166,0.611 1.421,0.277 3.438,0.694 5.885,0.873 4.887,0.452 11.445,0.261 17.914,-0.89 3.224,-0.614 6.433,-1.419 9.346,-2.504 2.909,-1.103 5.57,-2.348 7.63,-3.816 1.065,-0.666 1.968,-1.378 2.687,-2.127 0.741,-0.709 1.41,-1.269 1.825,-1.89 0.892,-1.164 1.318,-1.84 1.318,-1.84 0,0 -0.732,0.432 -1.878,1.208 -1.152,0.763 -2.935,1.629 -5.121,2.446 -4.34,1.69 -10.387,3.193 -16.587,4.251 -6.173,1.132 -12.452,2.034 -17.196,2.682 m -22.739,20.318 c 0,0 4.118,0.341 10.229,0.379 6.118,0.018 14.314,-0.441 22.42,-2.158 4.026,-0.943 8.069,-1.993 11.708,-3.558 1.852,-0.632 3.533,-1.673 5.148,-2.462 1.573,-0.964 3.039,-1.889 4.281,-2.918 1.193,-1.126 2.38,-1.96 3.129,-3.104 0.772,-1.083 1.536,-1.904 1.869,-2.808 0.728,-1.751 1.037,-2.693 1.037,-2.693 0,0 -0.714,0.726 -1.957,2 -0.539,0.653 -1.566,1.141 -2.451,1.871 -0.876,0.749 -2.236,1.194 -3.427,1.935 -1.292,0.629 -2.807,1.14 -4.305,1.794 -1.626,0.469 -3.231,1.109 -5.018,1.57 -3.511,1.001 -7.341,1.922 -11.221,2.709 -7.735,1.685 -15.657,3.094 -21.591,4.533 -5.97,1.326 -9.849,2.913 -9.851,2.91 m -3.523,18.15 c -1.593,0.786 -2.49,1.292 -2.49,1.292 -0.003,0.003 4.067,-0.24 10.057,-0.661 3.011,-0.232 6.514,-0.591 10.263,-1.228 3.755,-0.584 7.727,-1.519 11.668,-2.712 1.961,-0.62 3.896,-1.356 5.786,-2.14 1.919,-0.688 3.667,-1.8 5.41,-2.657 1.673,-1.075 3.327,-1.994 4.701,-3.225 1.438,-1.122 2.718,-2.264 3.731,-3.523 1.117,-1.123 1.947,-2.33 2.576,-3.469 0.707,-1.069 1.22,-2.045 1.487,-2.94 0.622,-1.725 0.897,-2.681 0.897,-2.681 0,0 -0.681,0.752 -1.872,2.067 -0.509,0.693 -1.325,1.37 -2.221,2.143 -0.85,0.812 -1.877,1.624 -3.091,2.407 -1.125,0.867 -2.501,1.597 -3.913,2.404 -1.359,0.869 -3.058,1.415 -4.599,2.265 -3.341,1.309 -6.873,2.777 -10.633,3.825 -7.38,2.384 -15.107,4.284 -20.846,6.218 -2.873,0.921 -5.272,1.889 -6.911,2.615 m -6.157,33.361 c -1.122,0.611 -2.173,1.199 -3.155,1.763 -2.016,1.157 -3.727,2.204 -5.031,3.054 -1.911,1.272 -2.935,2.099 -2.935,2.099 0,0 0.707,-0.22 1.991,-0.62 0.424,-0.132 0.911,-0.284 1.456,-0.452 2.17,-0.657 5.285,-1.568 8.998,-2.808 7.424,-2.412 17.209,-6.235 26.431,-11.391 4.552,-2.672 9.055,-5.491 12.905,-8.682 1.988,-1.505 3.769,-3.14 5.388,-4.779 1.704,-1.526 3.076,-3.236 4.352,-4.775 1.348,-1.469 2.291,-3.085 3.181,-4.433 0.942,-1.316 1.591,-2.574 2.047,-3.655 0.933,-2.109 1.468,-3.311 1.468,-3.311 0,0 -0.879,0.97 -2.421,2.667 -0.703,0.879 -1.657,1.853 -2.818,2.911 -1.151,1.064 -2.332,2.325 -3.846,3.506 -2.908,2.454 -6.39,5.167 -10.374,7.756 -1.906,1.403 -4.103,2.549 -6.17,3.941 -2.13,1.304 -4.333,2.574 -6.555,3.811 -4.417,2.543 -8.96,4.9 -13.216,7.169 -4.268,2.238 -8.278,4.341 -11.696,6.229 M 587.59,468.771 c -0.701,-0.658 -1.518,-1.859 -2.944,-2.963 -1.482,-1.022 -3.111,-2.585 -5.326,-3.808 -2.166,-1.279 -4.582,-2.814 -7.439,-4.038 -11.201,-5.401 -26.998,-10.513 -43.033,-14.491 -16.086,-3.823 -32.395,-6.581 -44.702,-8.032 -6.146,-0.773 -11.312,-1.04 -14.916,-1.245 -3.605,-0.119 -5.669,-0.188 -5.669,-0.188 0,0 2.056,0.157 5.656,0.431 3.592,0.315 8.709,0.95 14.83,1.776 12.254,1.624 28.484,4.629 44.461,8.661 16.035,3.73 31.846,8.593 43.039,13.791 2.848,1.206 5.297,2.608 7.508,3.783 2.254,1.123 3.89,2.573 5.418,3.531 1.468,1.041 2.341,2.207 3.072,2.839 0.684,0.681 1.053,1.043 1.053,1.043 0,0 -0.489,-0.254 -1.393,-0.727 -0.892,-0.437 -2.174,-1.335 -3.853,-2.017 -1.799,-0.604 -3.452,-1.35 -5.872,-2.058 -2.38,-0.696 -4.933,-1.515 -7.904,-2.21 -2.867,-0.813 -6.047,-1.551 -9.398,-2.344 -3.287,-0.898 -6.938,-1.54 -10.535,-2.505 -7.37,-1.632 -15.157,-3.553 -23.026,-5.384 -4.9,-1.239 -9.803,-2.45 -14.597,-3.686 1.046,2.718 1.798,4.931 2.248,6.529 41.42,4.725 71.634,41.606 69.63,64.873 -7.162,-37.359 -86.902,-69.495 -159.152,-69.998 -43.9,-0.304 -27.834,-40.079 -73.865,-45.178 -12.873,-1.427 -15.695,1.409 -20.817,9.67 0.145,-0.07 0.295,-0.141 0.44,-0.209 2.207,-1.159 4.684,-1.194 6.695,-1.81 2.11,-0.287 6.184,0.232 10.092,1.341 2.334,0.473 3.67,2.009 3.67,2.009 0,0 -8.463,-2.287 -13.102,-1.064 -1.711,0.958 -3.74,1.483 -5.433,2.893 -1.551,1.177 -3.139,2.378 -4.498,3.972 -0.135,2.608 -0.039,5.868 0.211,9.549 1.793,-1.485 3.568,-2.777 5.029,-3.969 0.947,-0.838 2.078,-1.363 2.963,-1.91 0.9,-0.521 1.689,-0.973 2.334,-1.346 1.269,-0.726 1.992,-1.143 1.992,-1.143 0,0 -0.562,0.633 -1.549,1.744 -0.482,0.547 -1.068,1.207 -1.734,1.966 -0.645,0.778 -1.455,1.513 -2.094,2.619 -1.34,2.131 -3.025,4.406 -4.514,7.115 -0.545,1.055 -1.31,6.96 -1.091,8.907 2.328,-1.838 4.511,-3.559 6.394,-5.046 4.561,-2.705 7.486,-4.266 7.486,-4.266 0,0 -2.398,2.545 -5.615,6.234 -1.363,2.074 -2.959,4.494 -4.664,7.086 -0.721,1.377 -1.941,10.097 -1.654,12.627 1.855,-1.923 3.881,-3.378 5.609,-4.491 1.891,-1.026 3.412,-1.8 4.578,-2.159 1.112,-0.412 1.746,-0.647 1.746,-0.647 0,0 -0.492,0.464 -1.349,1.28 -0.889,0.749 -1.961,2.045 -3.152,3.542 -1.086,1.614 -2.217,3.491 -3.016,5.683 -0.877,2.128 -1.406,4.579 -1.9,7.057 -0.379,2.011 -0.702,4.15 -1.104,6.316 -0.006,0.688 -0.029,1.378 -0.076,2.072 3.127,-1.875 6.086,-4.34 7.699,-6.815 0,10.17 -8.318,14.572 -10.186,17.333 -0.121,0.291 -0.248,0.583 -0.378,0.877 0,0.009 -0.006,0.019 -0.008,0.03 -0.18,2.714 5.562,0.771 6.467,0.048 -6.354,10.327 -22.461,12.819 -25.133,13.166 -2.574,0.819 -5.763,1.091 -9.634,0.779 -9.637,-0.777 -19.072,-7.485 -23.303,-15.341 -7.121,-0.964 -10.438,-7.535 -10.438,-7.535 0,0 13.46,-1.268 19.739,-8.689 4.962,3.253 7.206,1.64 7.948,-2.122 l -0.131,-0.033 c 0,0 0.087,-0.255 0.244,-0.716 1.194,-8.64 -4.2,-26.407 -4.2,-26.407 -7.242,-20.282 -24.627,-32.351 -45.148,-22.696 -41.911,19.722 -13.848,52.156 -55.289,66.639 C 122.798,513.135 57.73,569.334 63.041,607 c -9.416,-21.369 7.243,-66.039 44.908,-83.903 -0.093,-1.658 -0.095,-3.993 0.016,-6.902 -4.137,2.721 -8.385,5.451 -12.619,8.205 -6.851,4.278 -13.601,8.617 -20.045,12.541 -3.09,2.075 -6.342,3.864 -9.158,5.774 -2.915,1.84 -5.688,3.565 -8.14,5.263 -2.587,1.615 -4.735,3.216 -6.763,4.646 -2.056,1.452 -3.379,2.694 -4.888,3.844 -1.372,1.19 -2.289,2.454 -2.996,3.157 -0.705,0.739 -1.08,1.137 -1.08,1.137 0,0 0.23,-0.463 0.66,-1.33 0.484,-0.833 0.929,-2.216 1.986,-3.675 1.138,-1.404 2.215,-3.305 3.982,-5.095 1.719,-1.831 3.581,-3.946 5.884,-6.005 8.911,-8.542 22.301,-18.256 36.269,-26.97 13.809,-8.98 28.198,-17.074 39.264,-22.574 5.529,-2.761 10.164,-5.019 13.463,-6.479 3.316,-1.422 5.212,-2.235 5.212,-2.235 0,0 -1.93,0.73 -5.305,2.012 -3.345,1.36 -8.147,3.282 -13.713,6.003 -11.175,5.352 -25.715,13.236 -39.699,22.056 -13.886,8.948 -27.182,18.895 -36.032,27.625 -2.309,2.084 -4.101,4.317 -5.738,6.232 -1.697,1.867 -2.733,3.873 -3.802,5.317 -0.994,1.508 -1.381,2.91 -1.831,3.762 -0.392,0.882 -0.6,1.356 -0.6,1.356 0,0 0.062,-0.539 0.178,-1.548 0.229,-0.983 0.144,-2.502 0.82,-4.282 0.7,-1.697 1.496,-4.36 2.901,-6.57 1.327,-2.311 2.831,-5.061 4.852,-7.587 7.774,-10.648 20.747,-21.996 34.965,-31.02 7.742,-4.966 15.855,-9.265 23.627,-12.726 0.114,-0.923 0.236,-1.865 0.364,-2.821 -4.866,2.154 -9.903,4.297 -14.958,6.448 -7.25,2.951 -14.513,5.892 -21.414,8.46 -6.901,2.587 -13.394,4.884 -19.013,6.798 -2.744,1.026 -5.467,1.759 -7.676,2.616 -2.29,0.862 -4.305,1.456 -5.792,2.081 -0.824,0.317 -1.563,0.6 -2.203,0.847 -0.622,0.357 -1.149,0.663 -1.581,0.909 -0.876,0.476 -1.346,0.73 -1.346,0.73 0,0 0.346,-0.359 0.996,-1.034 0.607,-0.72 1.605,-1.661 3.059,-2.63 1.355,-1.081 3.138,-2.211 5.217,-3.466 2.025,-1.332 4.481,-2.558 7.05,-4.079 10.425,-5.826 24.9,-12.553 39.638,-18.587 7.314,-3.144 14.744,-6.02 21.747,-8.606 7.034,-2.505 13.661,-4.666 19.419,-6.238 2.902,-0.691 5.514,-1.548 7.889,-2.014 2.379,-0.471 4.438,-0.986 6.161,-1.235 3.462,-0.407 5.44,-0.643 5.44,-0.643 0,0 -1.99,0.148 -5.473,0.404 -1.742,0.171 -3.82,0.594 -6.23,0.965 -2.418,0.351 -5.067,1.088 -7.985,1.771 -5.81,1.487 -12.491,3.556 -19.584,5.958 -7.061,2.49 -14.559,5.252 -21.942,8.307 -14.689,6.275 -29.087,13.237 -39.464,19.24 -5.176,3.022 -9.357,5.772 -12.046,8.043 -1.423,1.044 -2.367,2.026 -2.943,2.769 -0.621,0.7 -0.949,1.075 -0.949,1.075 0,0 0.206,-0.479 0.594,-1.378 0.383,-0.903 0.943,-2.179 2.22,-3.648 2.418,-3.254 6.034,-6.813 10.846,-10.885 4.806,-3.949 10.71,-8.081 17.311,-11.931 6.6,-3.852 13.862,-7.525 21.365,-10.638 3.746,-1.564 7.56,-2.993 11.346,-4.289 3.764,-1.357 7.604,-2.38 11.281,-3.419 0.635,-0.163 1.262,-0.316 1.891,-0.469 0.043,-0.226 0.087,-0.454 0.129,-0.681 -5.284,1.097 -10.807,2.122 -16.351,2.994 -13.631,2.141 -27.369,3.404 -37.757,3.999 -5.192,0.297 -9.552,0.523 -12.485,0.967 -1.404,0.238 -2.697,0.528 -3.194,0.786 -0.742,0.367 -0.872,1.007 -0.92,0.929 0.069,0.04 -0.033,-0.509 0.499,-1.126 0.457,-0.67 1.521,-1.314 2.865,-2 2.725,-1.39 6.938,-2.625 11.991,-4.01 10.13,-2.73 23.908,-5.354 37.753,-7.413 13.81,-2.302 27.72,-4.069 38.189,-4.849 5.234,-0.377 9.6,-0.677 12.666,-0.634 3.065,0.009 4.807,0.231 4.807,0.231 0,0 -1.727,-0.311 -4.801,-0.474 -3.069,-0.151 -7.465,-0.227 -12.722,0.099 -10.518,0.602 -24.481,2.119 -38.362,4.199 -13.847,2.31 -27.607,5.17 -37.74,8.092 -5.066,1.446 -9.194,3.044 -11.895,4.544 -1.326,0.769 -2.362,1.456 -2.809,2.187 -0.499,0.654 -0.369,1.189 -0.441,1.154 0.092,-0.008 -0.272,-0.447 0.023,-1.352 0.405,-1.142 1.214,-2.186 2.48,-3.402 2.49,-2.444 6.472,-5.051 11.395,-7.585 9.877,-5.057 23.675,-9.28 37.738,-11.509 7.634,-1.212 15.352,-1.836 22.555,-1.915 0.354,-1.458 0.721,-2.928 1.1,-4.406 -6.542,0.8 -14.524,0.785 -22.29,-0.111 -4.259,-0.524 -8.447,-1.212 -12.342,-2.091 -3.867,-0.809 -7.5,-1.875 -10.541,-2.725 -3.135,-0.987 -5.612,-1.672 -7.548,-2.039 -1.044,-0.24 -1.642,-0.167 -2.283,-0.169 -0.635,0.023 -0.97,0.038 -0.97,0.038 10e-4,0.002 1.094,-1.062 3.603,-1.485 2.46,-0.536 6.067,-0.574 10.366,-0.524 8.617,0.148 20.079,1.418 31.47,3.044 8.109,0.985 16.179,2.145 23.24,3.241 2.893,0.448 5.631,0.887 8.11,1.294 8.542,1.341 14.234,2.239 14.234,2.239 0,0 -5.607,-1.356 -14.101,-3.005 -2.453,-0.457 -5.162,-0.95 -8.023,-1.455 -7.059,-1.248 -15.138,-2.586 -23.271,-3.744 -11.451,-1.403 -22.971,-2.429 -31.656,-2.391 -4.336,0 -7.965,0.415 -10.422,1.066 -2.518,0.581 -3.549,1.722 -3.55,1.72 0,0 0.081,-0.281 0.356,-0.83 0.283,-0.442 0.755,-1.622 1.636,-2.263 0.833,-0.746 2.04,-1.887 3.397,-2.529 1.382,-0.826 3.014,-1.671 4.751,-2.26 7.096,-2.688 16.545,-3.469 25.541,-2.393 8.702,1.021 17.034,3.719 23.176,6.901 0.447,-1.52 0.91,-3.046 1.387,-4.577 -2.68,-0.758 -5.395,-1.574 -8.09,-2.461 -10.017,-3.316 -19.792,-7.609 -26.971,-11.577 -3.582,-1.972 -6.568,-3.822 -8.655,-5.077 -1.061,-0.563 -1.924,-1.226 -2.46,-1.402 -0.671,-0.279 -1.031,-0.429 -1.031,-0.429 0,0 0.339,-0.011 0.974,-0.033 0.628,-0.092 1.543,0.103 2.709,0.268 2.332,0.345 5.603,1.195 9.526,2.163 7.831,2.042 18.196,5.081 28.416,8.53 5.127,1.676 10.232,3.425 14.938,5.265 4.727,1.785 9.1,3.556 12.735,5.309 1.856,0.811 3.44,1.756 4.902,2.509 1.502,0.707 2.539,1.655 3.545,2.28 1.044,0.588 1.503,1.473 1.979,1.885 0.428,0.469 0.655,0.721 0.655,0.721 0,0 -0.212,-0.262 -0.604,-0.761 -0.45,-0.442 -0.843,-1.346 -1.85,-2.009 -0.95,-0.689 -2.01,-1.766 -3.455,-2.561 -1.412,-0.854 -2.966,-1.926 -4.808,-2.786 -3.609,-1.877 -7.911,-3.909 -12.64,-5.757 -4.711,-1.902 -9.813,-3.723 -14.941,-5.47 -10.289,-3.368 -20.727,-6.281 -28.683,-7.946 -3.97,-0.853 -7.322,-1.389 -9.686,-1.611 -1.182,-0.092 -2.108,-0.225 -2.746,-0.092 -0.629,0.063 -0.966,0.096 -0.966,0.096 0,0 0.244,-0.204 0.907,-0.56 0.727,-0.399 1.71,-0.737 2.998,-1.04 2.609,-0.685 6.244,-1.152 10.556,-1.301 8.609,-0.266 19.633,1.396 30.132,4.897 2.744,0.929 5.45,1.966 8.076,3.102 0.26,-0.681 0.522,-1.363 0.787,-2.045 -2.835,-1.286 -5.661,-2.882 -8.248,-4.708 -2.362,-1.689 -4.561,-3.525 -6.488,-5.37 -1.935,-1.872 -3.587,-3.719 -5.017,-5.427 -0.729,-0.883 -1.397,-1.691 -1.991,-2.408 -0.679,-0.715 -1.273,-1.337 -1.762,-1.853 -1.036,-0.88 -2.063,-1.545 -2.063,-1.545 0,0 0.244,-0.002 0.703,-0.009 0.457,0.049 1.128,-0.127 1.955,0.094 0.817,0.241 1.846,0.305 2.936,0.79 1.102,0.426 2.353,0.849 3.66,1.493 5.272,2.433 11.968,6.402 18.423,10.732 4.788,3.113 9.468,6.382 13.501,9.246 1.459,1.036 2.837,2.022 4.101,2.926 4.765,3.384 7.84,5.788 7.84,5.788 0,0 -2.804,-2.723 -7.345,-6.431 -1.509,-1.24 -3.224,-2.591 -5.064,-3.994 -3.683,-2.809 -7.902,-5.844 -12.238,-8.742 -6.545,-4.272 -13.384,-8.168 -18.905,-10.278 -1.342,-0.601 -2.675,-0.919 -3.826,-1.244 -1.135,-0.382 -2.224,-0.366 -3.058,-0.527 -0.85,-0.147 -1.536,0.092 -1.987,0.087 -0.455,0.043 -0.696,0.069 -0.696,0.069 0,0 0.515,-0.84 2.177,-1.909 1.575,-0.889 4.217,-1.679 7.142,-1.732 5.899,-0.162 12.71,2.237 18.027,6.05 1.685,1.197 3.227,2.538 4.642,3.946 0.307,-0.651 0.618,-1.302 0.933,-1.951 -2.675,-2.549 -5.421,-5.256 -8.066,-7.965 -5.227,-5.358 -10.456,-10.719 -14.377,-14.736 -2.123,-2.09 -4.008,-4.133 -5.461,-5.459 -1.435,-1.388 -2.301,-2.404 -2.301,-2.404 0,0 0.288,0.056 0.826,0.163 0.526,0.156 1.348,0.156 2.281,0.567 0.922,0.437 2.109,0.782 3.327,1.516 1.215,0.731 2.644,1.432 4.078,2.429 2.949,1.853 6.191,4.326 9.6,7.042 3.429,2.691 6.92,5.777 10.361,8.909 6.122,5.559 11.908,11.479 16.255,16.491 0.544,0.627 1.076,1.246 1.573,1.843 2.229,2.687 3.933,5.032 4.959,6.784 0.573,0.85 0.776,1.651 1.03,2.134 0.221,0.501 0.338,0.77 0.338,0.77 0,0 -0.097,-0.273 -0.279,-0.792 -0.217,-0.501 -0.359,-1.309 -0.865,-2.205 -0.928,-1.836 -2.399,-4.403 -4.545,-7.191 -0.699,-0.941 -1.479,-1.927 -2.293,-2.927 -4.076,-5.013 -9.471,-10.663 -15.197,-15.978 -6.954,-6.277 -14.387,-12.062 -20.513,-15.575 -1.474,-0.96 -2.998,-1.574 -4.277,-2.202 -1.277,-0.648 -2.528,-0.915 -3.482,-1.28 -0.968,-0.344 -1.817,-0.284 -2.346,-0.396 -0.543,-0.068 -0.831,-0.102 -0.831,-0.102 0,0 1.141,-0.481 3.221,-0.931 1.028,-0.2 2.359,-0.558 3.775,-0.504 1.438,-0.022 3.156,-0.125 4.924,0.119 3.541,0.461 7.648,1.576 11.567,3.628 1.98,0.993 3.957,2.154 5.764,3.573 1.934,1.287 3.536,2.96 5.264,4.519 1.374,1.559 2.821,3.064 4.011,4.728 0.887,-1.475 1.792,-2.936 2.72,-4.381 -1.663,-1.531 -3.302,-3.118 -4.876,-4.739 -1.348,-1.448 -2.756,-2.796 -3.998,-4.303 -1.336,-1.322 -2.529,-2.83 -3.708,-4.194 -1.196,-1.26 -2.273,-2.789 -3.342,-3.951 -1.057,-1.159 -2.04,-2.614 -2.981,-3.537 -0.946,-0.998 -1.823,-2.285 -2.662,-2.973 -0.857,-0.681 -1.685,-1.806 -2.415,-2.184 -1.727,-1.126 -2.715,-1.772 -2.715,-1.772 0,0 0.903,0.044 2.478,0.114 0.791,-0.052 1.708,0.252 2.75,0.564 1.064,0.236 2.202,0.662 3.393,1.292 2.467,1.017 5.027,2.881 7.665,4.92 2.656,2.04 5.24,4.542 7.753,7.099 5.046,5.115 9.538,10.771 12.887,15.019 3.342,4.258 5.444,7.211 5.444,7.211 0,0 -1.746,-3.178 -4.788,-7.688 -3.044,-4.504 -7.461,-10.292 -12.505,-15.547 -2.596,-2.56 -5.269,-5.049 -8.027,-7.088 -1.37,-1.033 -2.713,-2.001 -4.123,-2.727 -1.344,-0.825 -2.677,-1.49 -3.987,-1.948 -1.247,-0.598 -2.469,-0.917 -3.593,-1.056 -1.098,-0.209 -2.046,-0.424 -2.855,-0.296 -1.586,0.084 -2.492,0.131 -2.492,0.131 0,0 0.872,-0.749 3.071,-1.665 1.137,-0.529 2.394,-0.592 4.029,-0.73 1.71,-0.212 3.331,0.043 5.259,0.342 2,0.266 3.72,0.977 5.757,1.681 2.011,0.738 3.792,1.769 5.762,2.855 3.742,2.254 7.281,5.138 10.399,8.318 0.883,0.929 1.726,1.884 2.546,2.853 1.353,-1.656 2.747,-3.276 4.172,-4.858 -0.769,-0.892 -1.574,-1.799 -2.3,-2.754 -1.171,-1.389 -2.351,-2.845 -3.503,-4.299 -4.68,-5.827 -9.047,-12.015 -12.28,-17.04 -0.821,-1.225 -1.573,-2.361 -2.267,-3.481 -0.73,-0.905 -1.357,-1.883 -1.943,-2.691 -1.341,-1.51 -2.105,-2.374 -2.105,-2.374 0,0 0.975,0.317 2.683,0.875 0.792,0.418 1.752,0.93 2.855,1.511 1.023,0.71 2.181,1.501 3.443,2.376 4.885,3.699 10.782,9.455 15.852,15.871 2.518,3.213 4.943,6.521 6.818,9.858 0.986,1.64 1.844,3.27 2.566,4.868 0.851,1.542 1.246,3.149 1.81,4.575 0.41,1.456 0.656,2.836 0.908,4.045 0.008,1.214 0.091,2.3 0.036,3.192 -0.444,1.751 -0.695,2.75 -0.695,2.75 0,0 0.336,-0.974 0.927,-2.681 0.134,-0.883 0.154,-2.001 0.252,-3.296 -0.143,-1.256 -0.274,-2.707 -0.648,-4.227 -0.497,-1.475 -0.84,-3.17 -1.62,-4.78 -0.67,-1.666 -1.447,-3.389 -2.447,-5.066 -1.858,-3.435 -4.265,-6.829 -6.772,-10.138 -2.657,-3.192 -5.404,-6.308 -8.259,-8.953 -1.37,-1.385 -2.838,-2.569 -4.222,-3.693 -1.341,-1.175 -2.797,-2.061 -4.038,-2.995 -2.582,-1.76 -4.984,-2.799 -6.679,-3.444 -1.764,-0.411 -2.77,-0.648 -2.77,-0.648 0,0 1.05,-0.523 3.351,-0.851 2.155,-0.176 5.338,0.084 8.764,1.158 3.361,1.104 7.106,2.88 10.518,5.384 1.759,1.217 3.442,2.612 5.025,4.156 1.681,1.462 3.049,3.254 4.546,4.93 1.529,2.003 2.938,4.102 4.162,6.28 2.021,-1.69 4.097,-3.311 6.238,-4.845 -0.18,-0.553 -0.351,-1.11 -0.542,-1.658 -0.613,-2.154 -1.471,-4.164 -2.236,-6.181 -0.77,-2.017 -1.728,-3.841 -2.552,-5.708 -1.049,-1.636 -1.79,-3.565 -2.933,-4.921 -0.517,-0.771 -1.019,-1.517 -1.504,-2.24 -0.57,-0.641 -1.121,-1.262 -1.648,-1.858 -1.047,-1.304 -2.208,-2.227 -3.292,-3.097 -0.533,-0.453 -1.06,-0.846 -1.536,-1.293 -0.533,-0.307 -1.026,-0.591 -1.468,-0.844 -1.817,-1.062 -2.981,-1.812 -2.981,-1.812 0,0 1.172,0.294 3.23,0.814 0.509,0.126 1.071,0.267 1.686,0.424 0.572,0.283 1.187,0.589 1.843,0.914 1.325,0.629 2.808,1.317 4.183,2.497 0.711,0.539 1.453,1.101 2.219,1.681 0.663,0.703 1.347,1.429 2.051,2.177 1.517,1.388 2.556,3.34 3.928,5.095 1.106,1.942 2.343,3.916 3.26,6.086 0.955,2.156 1.878,4.365 2.559,6.672 1.597,4.526 2.596,9.254 3.291,13.705 0.637,4.465 1.059,8.672 1.021,12.287 0.041,3.62 -0.232,6.617 -0.573,8.702 -0.452,2.069 -0.814,3.232 -0.814,3.232 0,0 0.443,-1.133 1.048,-3.165 0.466,-2.078 1.064,-5.098 1.151,-8.755 0.156,-3.654 0,-7.933 -0.591,-12.475 -0.645,-4.528 -1.595,-9.341 -3.157,-13.987 -0.721,-2.343 -1.701,-4.591 -2.71,-6.785 -0.972,-2.206 -2.268,-4.23 -3.433,-6.204 -1.42,-1.818 -2.581,-3.75 -4.212,-5.135 -0.757,-0.739 -1.495,-1.458 -2.207,-2.153 -0.818,-0.569 -1.609,-1.119 -2.366,-1.647 -1.451,-1.166 -3.042,-1.775 -4.441,-2.311 -0.689,-0.279 -1.336,-0.542 -1.931,-0.787 -0.637,-0.108 -1.218,-0.213 -1.749,-0.307 -2.09,-0.365 -3.286,-0.575 -3.286,-0.575 0,0 1.204,-0.243 3.537,-0.425 0.593,-0.033 1.248,-0.068 1.965,-0.108 0.689,0.078 1.424,0.254 2.235,0.407 1.639,0.29 3.558,0.667 5.336,1.709 0.93,0.454 1.939,0.919 2.936,1.467 0.889,0.678 1.809,1.374 2.754,2.093 2.007,1.415 3.463,3.371 5.206,5.308 1.449,2.053 3.026,4.224 4.141,6.583 1.029,2.004 1.933,4.091 2.673,6.219 2.198,-1.207 4.455,-2.334 6.771,-3.373 -0.11,-0.38 -0.219,-0.75 -0.328,-1.133 -1.305,-4.291 -2.685,-8.828 -4.36,-13.176 -0.722,-2.234 -1.69,-4.314 -2.522,-6.432 -0.952,-2.026 -1.808,-4.098 -2.823,-5.933 -0.979,-1.886 -1.973,-3.654 -3.068,-5.207 -0.977,-1.718 -2.219,-2.91 -3.23,-4.344 -1.243,-0.984 -2.236,-2.41 -3.414,-3.115 -1.171,-0.684 -2.157,-1.748 -3.143,-2.082 -1.924,-0.914 -3.198,-1.576 -3.198,-1.576 0,0 1.238,0.205 3.399,0.562 1.101,0.077 2.277,0.807 3.696,1.289 1.44,0.475 2.746,1.661 4.356,2.545 1.351,1.272 3.042,2.405 4.342,4.109 1.448,1.562 2.753,3.378 4.024,5.331 1.299,1.917 2.403,4.074 3.503,6.247 1.012,2.23 2.044,4.49 2.833,6.854 1.8,4.641 3.06,9.484 4.015,14.056 0.888,4.587 1.631,8.913 1.867,12.653 0.345,3.734 0.448,6.855 0.403,9.059 -0.053,2.198 -0.085,3.452 -0.085,3.452 0,0 0.118,-1.249 0.326,-3.437 0.168,-2.178 0.386,-5.354 0.166,-9.125 -0.116,-3.78 -0.599,-8.183 -1.446,-12.84 -0.908,-4.646 -2.12,-9.571 -3.887,-14.32 -0.83,-2.395 -1.917,-4.687 -2.98,-6.943 -1.15,-2.21 -2.309,-4.394 -3.667,-6.35 -1.308,-2 -2.744,-3.803 -4.297,-5.359 -1.4,-1.685 -3.206,-2.81 -4.641,-4.047 -1.697,-0.885 -3.109,-1.984 -4.632,-2.367 -1.497,-0.4 -2.719,-1.041 -3.847,-1.045 -2.193,-0.207 -3.448,-0.324 -3.448,-0.324 0,0 1.218,-0.338 3.652,-0.686 1.236,-0.258 2.648,0.055 4.397,0.25 1.782,0.151 3.51,1.01 5.576,1.797 1.769,1.07 4.03,2.139 5.75,3.815 1.905,1.56 3.66,3.412 5.254,5.478 1.642,2.041 3.046,4.307 4.349,6.666 1.241,2.366 2.397,4.838 3.289,7.365 1.817,4.852 2.912,9.85 3.463,14.613 1.457,-0.47 2.932,-0.91 4.433,-1.313 -0.386,-1.817 -0.766,-3.704 -1.131,-5.654 -0.768,-4.27 -1.589,-8.822 -2.41,-13.377 -0.435,-2.23 -0.73,-4.531 -1.19,-6.693 -0.459,-2.17 -0.743,-4.376 -1.241,-6.396 -0.407,-2.078 -0.801,-4.074 -1.318,-5.896 -0.402,-1.914 -0.874,-3.637 -1.409,-5.213 -0.461,-1.657 -0.999,-3.075 -1.575,-4.321 -0.556,-1.271 -0.972,-2.513 -1.583,-3.295 -1.069,-1.751 -1.748,-2.953 -1.748,-2.953 0,0 0.89,0.797 2.441,2.188 0.844,0.625 1.575,1.66 2.413,2.838 0.899,1.133 1.807,2.465 2.579,4.078 0.888,1.537 1.737,3.254 2.413,5.182 0.809,1.867 1.454,3.912 2.092,6.042 0.724,2.1 1.198,4.352 1.749,6.622 0.601,2.257 0.902,4.626 1.371,6.947 1.715,9.356 2.405,18.879 2.884,26.009 0.457,7.139 0.527,11.921 0.527,11.921 0,0 0.354,-4.77 0.282,-11.951 -0.055,-3.586 -0.188,-7.776 -0.547,-12.253 -0.376,-4.475 -0.936,-9.237 -1.72,-13.969 -0.501,-2.348 -0.841,-4.729 -1.479,-7.014 -0.591,-2.291 -1.101,-4.562 -1.871,-6.688 -0.65,-2.161 -1.409,-4.208 -2.314,-6.079 -0.769,-1.925 -1.707,-3.646 -2.683,-5.177 -0.833,-1.616 -1.871,-2.914 -2.873,-4 -0.94,-1.129 -1.754,-2.114 -2.658,-2.684 -1.657,-1.283 -2.606,-2.012 -2.606,-2.012 0,0 1.154,0.325 3.299,1.246 1.136,0.411 2.264,1.196 3.489,2.227 0.64,0.516 1.318,1.063 2.034,1.646 0.656,0.622 1.193,1.366 1.842,2.112 0.634,0.771 1.292,1.57 1.977,2.396 0.606,0.862 1.119,1.799 1.71,2.75 1.198,1.916 2.208,4.01 3.091,6.223 0.989,2.207 1.697,4.529 2.377,6.915 0.778,2.376 1.122,4.824 1.658,7.268 1.159,6.6 1.391,13.211 1.048,19.069 2.103,-0.358 4.243,-0.655 6.423,-0.883 -0.281,-3.641 -0.453,-7.525 -0.521,-11.389 -0.082,-3.579 -0.011,-7.159 0.015,-10.464 0.062,-3.305 0.116,-6.387 0.163,-9.03 0.012,-1.349 -0.128,-2.439 -0.122,-3.599 -0.152,-1.071 -0.285,-2.002 -0.393,-2.776 -0.44,-1.404 -0.926,-2.486 -0.926,-2.486 0,0 0.697,0.654 1.741,1.859 0.371,0.727 0.913,1.549 1.349,2.578 0.32,1.086 0.86,2.233 1.15,3.596 0.696,2.682 1.21,5.887 1.52,9.352 0.389,3.454 0.502,7.177 0.57,10.891 0.159,7.437 -0.232,14.889 -0.684,20.453 -0.249,2.784 -0.484,5.101 -0.762,6.706 -0.277,1.61 -0.539,2.512 -0.539,2.512 -0.002,0 1.337,-3.528 2.107,-9.121 0.849,-5.566 1.382,-13.061 1.328,-20.573 -0.129,-3.753 -0.316,-7.507 -0.771,-11.01 -0.362,-3.509 -1.158,-6.739 -1.986,-9.444 -0.82,-2.731 -2.098,-4.77 -3.088,-6.09 -1.198,-1.145 -1.935,-1.709 -1.935,-1.709 0,0 0.235,0.076 0.683,0.211 0.426,0.168 1.246,0.346 2.071,0.871 1.547,1.07 3.595,3.105 5.07,5.889 1.582,2.73 2.887,6.139 3.666,9.768 0.874,3.647 1.244,7.548 1.356,11.437 0.046,3.766 -0.267,7.506 -0.846,10.996 0.418,-0.003 0.839,-0.002 1.259,-10e-4 -0.001,-1.652 0.081,-3.331 0.266,-5.017 0.359,-3.403 1.167,-6.821 2.36,-9.925 0.515,-1.549 1.35,-3.024 2.061,-4.376 0.671,-1.362 1.732,-2.558 2.538,-3.629 0.739,-1.105 1.865,-1.944 2.675,-2.684 0.778,-0.772 1.673,-1.279 2.416,-1.651 1.466,-0.756 2.31,-1.022 2.31,-1.022 0,0 -0.544,0.602 -1.491,1.651 -0.505,0.516 -1.062,1.178 -1.565,2.038 -0.503,0.853 -1.254,1.736 -1.691,2.885 -0.472,1.126 -1.155,2.295 -1.56,3.64 -0.437,1.331 -1.017,2.713 -1.309,4.215 -0.753,2.967 -1.35,6.183 -1.707,9.419 -0.679,6.481 -0.653,12.99 -0.28,17.838 0.359,4.855 0.911,8.049 0.911,8.049 0,0 -0.133,-3.238 -0.098,-8.076 0.021,-4.831 0.138,-11.282 0.908,-17.653 0.636,-6.377 2.028,-12.672 3.876,-17.092 0.378,-1.149 1.001,-2.056 1.399,-2.953 0.401,-0.901 0.872,-1.607 1.308,-2.159 0.827,-1.146 1.299,-1.802 1.299,-1.802 0,0 -0.172,0.99 -0.484,2.433 -0.195,0.693 -0.33,1.555 -0.453,2.543 -0.094,1.009 -0.336,1.965 -0.415,3.154 -0.408,4.483 -0.951,10.459 -1.496,16.436 -0.164,1.428 -0.348,2.866 -0.547,4.295 1.86,0.176 3.739,0.395 5.646,0.663 0.795,-7.552 1.797,-16.212 3.001,-25.024 -0.023,-1.463 -0.121,-3.547 -0.357,-6.224 -0.138,-2.788 -0.651,-6.168 -1.101,-10.065 -0.704,-3.855 -1.247,-8.283 -2.445,-12.992 -0.286,-1.416 -0.631,-2.863 -1,-4.328 -5.111,-9.418 -11.129,-19.125 -17.923,-28.322 -3.47,-4.829 -7.236,-9.43 -11.03,-13.897 -3.824,-4.439 -7.782,-8.643 -11.778,-12.557 -8.001,-7.812 -16.208,-14.365 -23.66,-19.408 -3.733,-2.51 -7.253,-4.674 -10.462,-6.445 -3.165,-1.86 -6.095,-3.158 -8.432,-4.401 -4.837,-2.123 -7.606,-3.339 -7.606,-3.339 0,0 2.873,0.966 7.897,2.652 2.439,1.029 5.51,2.072 8.86,3.652 3.397,1.498 7.147,3.36 11.162,5.565 8.006,4.428 16.978,10.349 25.903,17.621 4.453,3.637 8.91,7.592 13.255,11.805 3.6,3.533 7.189,7.197 10.625,11.013 -1.452,-2.722 -2.913,-5.474 -4.39,-8.254 -1.416,-2.918 -3.318,-5.564 -5.034,-8.351 -1.822,-2.715 -3.376,-5.653 -5.435,-8.223 -4.024,-5.199 -7.779,-10.682 -12.334,-15.353 -2.186,-2.424 -4.352,-4.83 -6.495,-7.207 -2.344,-2.186 -4.662,-4.34 -6.941,-6.463 -2.313,-2.086 -4.458,-4.311 -6.807,-6.186 -2.372,-1.849 -4.698,-3.654 -6.963,-5.416 -2.269,-1.766 -4.479,-3.486 -6.611,-5.146 -2.268,-1.467 -4.457,-2.881 -6.558,-4.245 -4.248,-2.664 -8.024,-5.337 -11.617,-7.332 -3.632,-1.921 -6.8,-3.595 -9.41,-4.976 -5.216,-2.764 -8.198,-4.34 -8.198,-4.34 0,0 3.098,1.332 8.521,3.666 2.71,1.166 6.006,2.578 9.781,4.203 3.741,1.699 7.765,4.072 12.286,6.434 2.251,1.211 4.596,2.472 7.022,3.781 2.299,1.51 4.675,3.064 7.119,4.664 2.451,1.611 4.965,3.262 7.537,4.951 2.551,1.725 4.922,3.805 7.467,5.754 2.515,1.99 5.076,4.02 7.665,6.072 2.409,2.27 4.845,4.569 7.3,6.885 5.105,4.475 9.463,9.813 14.105,14.928 1.179,1.258 2.235,2.613 3.263,3.988 -1.843,-4.062 -3.787,-8.066 -5.589,-12.097 -3.397,-6.002 -6.412,-12.163 -9.948,-17.727 -3.733,-5.414 -6.851,-11.07 -10.709,-15.738 -3.84,-4.672 -7.139,-9.428 -10.805,-13.256 -3.699,-3.817 -7.089,-7.315 -10.092,-10.414 -3.074,-3.041 -6.161,-5.233 -8.504,-7.281 -4.807,-3.973 -7.556,-6.243 -7.556,-6.243 0,0 2.914,2.055 8.009,5.651 2.499,1.869 5.787,3.847 9.108,6.668 3.27,2.894 6.961,6.162 10.983,9.728 4.012,3.6 7.708,8.135 11.992,12.612 4.3,4.472 7.894,9.939 12.143,15.218 4.055,5.414 7.603,11.442 11.57,17.366 3.383,6.228 7.179,12.425 10.313,18.935 3.128,6.498 6.375,12.979 8.987,19.582 -5.825,-17.656 -13.309,-37.594 -23.401,-57.828 -10.967,-21.77 -24.96,-44.203 -43.824,-61.83 -9.388,-8.781 -20.111,-16.162 -31.718,-20.961 -6.093,-2.535 -11.952,-4.857 -17.918,-6.658 -5.95,-1.914 -11.998,-3.264 -17.76,-3.492 -5.751,-0.28 -11.235,1.373 -11.732,6.236 -0.571,4.906 1.727,10.467 4.427,15.156 5.559,9.529 13.117,17.383 21.023,22.996 3.98,2.764 8.167,4.975 12.401,5.912 2.105,0.403 4.225,0.618 6.174,0.198 1.937,-0.25 3.81,-1.311 5.713,-2.004 3.432,-1.698 6.825,-3.793 7.802,-6.901 0.987,-3.144 -1.282,-6.074 -3.463,-7.718 -4.578,-3.426 -9.258,-4.465 -12.302,-4.606 -3.113,-0.066 -4.67,0.746 -4.682,0.645 0.015,0.103 1.533,-0.776 4.686,-0.838 3.093,0.021 7.845,0.842 12.751,4.207 2.291,1.595 5.093,4.666 4.11,8.603 -1.057,3.791 -4.69,6.114 -8.259,8.078 -1.861,0.754 -3.632,1.907 -5.976,2.358 -2.242,0.568 -4.622,0.426 -6.97,0.07 -4.692,-0.849 -9.198,-3.021 -13.486,-5.74 -8.522,-5.563 -16.618,-13.27 -22.986,-23.193 -3.019,-5.002 -6.095,-10.637 -5.669,-17.844 0.2,-3.631 2.895,-7.494 6.294,-8.998 3.325,-1.639 6.839,-2.119 10.151,-2.117 6.684,-0.006 13.157,1.226 19.466,2.953 6.373,1.646 12.677,3.859 18.74,6.092 12.798,4.691 24.592,12.148 34.956,21.066 20.807,17.928 36.287,40.74 48.567,62.799 2.604,4.724 5.033,9.429 7.356,14.099 -0.664,-3.142 -1.383,-6.347 -2.116,-9.611 -1.636,-6.57 -3.337,-13.383 -5.394,-20.225 -1.867,-6.902 -4.287,-13.753 -6.476,-20.707 -2.489,-6.863 -4.745,-13.714 -7.41,-20.525 -2.446,-6.928 -4.151,-13.871 -5.235,-20.711 -2.199,-13.654 -2.116,-26.68 -0.334,-37.568 0.937,-5.432 2.225,-10.373 4.12,-14.455 1.843,-4.082 4.261,-7.383 7.072,-9.065 2.774,-1.781 5.564,-1.685 7.182,-1.242 1.668,0.4 2.499,0.803 2.499,0.803 0,0 -0.849,-0.375 -2.517,-0.719 -1.622,-0.387 -4.36,-0.381 -6.986,1.43 -2.672,1.722 -4.928,5.011 -6.605,9.072 -1.729,4.064 -2.838,8.973 -3.585,14.353 -1.408,10.784 -1.064,23.647 1.531,36.967 1.269,6.656 3.192,13.451 5.748,20.008 2.583,6.576 6.137,13.139 9.195,19.789 2.93,6.733 6.102,13.391 8.727,20.154 2.81,6.696 5.269,13.416 7.646,19.94 2.23,6.578 4.385,12.953 6.112,19.121 1.8,6.143 3.313,12.033 4.498,17.545 0.562,2.521 1.054,4.951 1.495,7.299 -0.064,-4.659 -0.107,-9.512 -0.479,-14.5 -0.547,-12.008 -1.794,-24.803 -3.493,-37.584 -1.702,-12.791 -3.882,-25.549 -5.92,-37.592 -0.978,-6.022 -1.964,-11.858 -2.646,-17.449 -0.799,-5.565 -1.14,-10.914 -1.424,-15.828 0.06,-4.95 0.01,-9.477 0.781,-13.45 0.322,-4.009 1.707,-7.298 2.441,-10.048 0.921,-2.702 2.197,-4.612 2.799,-6.002 0.682,-1.36 1.047,-2.084 1.047,-2.084 0,0 -0.302,0.753 -0.873,2.17 -0.486,1.439 -1.582,3.412 -2.258,6.142 -0.499,2.787 -1.577,6.053 -1.559,10 -0.429,3.881 -0.007,8.307 0.333,13.078 0.682,4.783 1.44,9.93 2.685,15.34 1.126,5.424 2.585,11.107 4.061,17.004 3.018,11.773 6.286,24.42 9.09,37.207 2.769,12.619 5.104,25.385 6.696,37.486 0.412,-4.476 0.81,-8.996 1.249,-13.529 1.027,-10.783 1.295,-21.578 1.944,-31.73 0.292,-5.077 0.065,-9.961 0.125,-14.616 -0.007,-4.66 -0.014,-9.064 -0.02,-13.131 0.071,-4.08 -0.583,-7.742 -0.783,-11.041 -0.301,-3.294 -0.56,-6.166 -0.776,-8.531 -0.433,-4.746 -0.683,-7.461 -0.683,-7.461 0,0 0.517,2.666 1.419,7.336 0.448,2.342 0.998,5.184 1.63,8.447 0.531,3.276 1.564,6.952 1.897,11.024 0.418,4.074 0.866,8.486 1.341,13.152 0.412,4.676 1.131,9.619 1.351,14.731 0.371,10.218 1.188,21.17 1.244,32.101 0.038,10.922 0.314,21.891 -0.025,32.133 -0.154,10.258 -0.414,19.836 -0.817,28.039 -0.262,7.553 -0.659,13.969 -0.933,18.695 10.811,15.633 21.594,38.381 28.959,55.286 1.494,-0.745 2.983,-1.455 4.467,-2.126 -0.65,-1.286 -1.289,-2.587 -1.908,-3.886 -2.446,-5.479 -4.893,-10.961 -6.729,-15.072 -0.457,-1.096 -0.998,-1.92 -1.41,-2.846 -0.437,-0.897 -0.844,-1.67 -1.252,-2.262 -0.765,-1.265 -1.244,-2.146 -1.244,-2.146 0,0 0.658,0.468 1.814,1.285 0.588,0.383 1.264,0.896 1.936,1.621 0.662,0.719 1.545,1.379 2.277,2.342 3.178,3.586 6.53,9.092 9.194,14.921 2.789,5.779 4.986,11.844 6.568,16.41 1.594,4.565 2.518,7.674 2.518,7.674 0,0 -0.512,-3.202 -1.741,-7.91 -1.216,-4.711 -3.296,-10.878 -6.035,-16.792 -1.383,-2.945 -2.986,-5.796 -4.66,-8.358 -0.764,-1.326 -1.76,-2.447 -2.601,-3.568 -0.817,-1.139 -1.844,-2.022 -2.651,-2.938 -0.787,-0.943 -1.785,-1.541 -2.537,-2.183 -0.752,-0.655 -1.494,-1.1 -2.137,-1.42 -1.238,-0.692 -1.945,-1.084 -1.945,-1.084 0,0 0.885,-0.022 2.512,0.22 0.826,0.114 1.84,0.305 2.824,0.784 1.006,0.433 2.342,0.867 3.4,1.673 1.106,0.754 2.504,1.541 3.575,2.614 1.109,1.049 2.377,2.172 3.363,3.476 2.133,2.552 4.004,5.524 5.445,8.624 0.719,1.536 1.34,3.099 1.873,4.663 0.397,-0.137 0.795,-0.274 1.19,-0.406 -1.678,-3.116 -3.182,-6.552 -4.356,-10.13 -1.15,-3.719 -2.062,-7.524 -2.418,-11.262 -0.433,-3.684 -0.299,-7.336 0.315,-10.43 0.492,-3.108 1.775,-5.699 2.892,-7.209 0.61,-0.768 1.33,-1.197 1.678,-1.494 0.379,-0.276 0.578,-0.422 0.578,-0.422 0,0 -0.514,0.771 -1.281,2.242 -0.51,1.568 -1.059,3.914 -0.949,6.76 0.091,2.83 0.382,6.144 1.172,9.582 0.703,3.459 1.74,7.074 2.834,10.666 2.373,7.127 5.308,14.046 7.908,19.04 2.539,5.045 4.945,7.946 4.945,7.949 0,0 -0.539,-0.769 -1.324,-2.202 -0.781,-1.427 -1.754,-3.543 -2.889,-6.098 -2.226,-5.122 -5.006,-12.045 -7.262,-19.132 -1.138,-3.541 -2.236,-7.098 -2.982,-10.491 -0.83,-3.383 -1.379,-6.582 -1.59,-9.345 -0.16,-1.383 -0.019,-2.643 -0.074,-3.774 0.084,-1.115 0.326,-2.068 0.443,-2.873 0.602,-1.48 1.049,-2.324 1.049,-2.324 0,0 -0.111,1.18 -0.074,2.65 0.148,0.764 0.326,1.694 0.527,2.76 0.381,1.092 0.602,2.162 1.047,3.441 0.901,2.483 1.951,5.385 3.074,8.495 1.094,3.115 2.319,6.482 3.399,9.894 1.187,3.678 2.281,7.408 3.191,10.943 2.137,-0.488 4.258,-0.898 6.363,-1.241 -2.22,-5.43 -4.136,-11.762 -5.175,-18.382 -0.28,-2.484 -0.748,-4.914 -0.782,-7.412 -0.125,-2.478 -0.207,-4.902 0.018,-7.316 0.119,-2.379 0.398,-4.686 0.912,-6.887 0.252,-1.09 0.432,-2.142 0.727,-3.15 0.377,-1.008 0.746,-1.977 1.095,-2.908 0.375,-0.918 0.641,-1.795 1.065,-2.598 0.488,-0.783 0.951,-1.52 1.389,-2.213 0.824,-1.375 1.64,-2.476 2.582,-3.236 1.73,-1.567 2.718,-2.246 2.718,-2.246 0,0 -0.658,0.998 -1.812,2.744 -0.676,0.836 -1.123,2.029 -1.649,3.404 -0.597,1.352 -1.162,2.916 -1.429,4.715 -0.424,1.762 -0.758,3.693 -0.862,5.764 -0.252,2.062 -0.306,4.246 -0.226,6.5 -0.037,2.263 0.213,4.578 0.392,6.939 0.135,2.365 0.586,4.725 0.869,7.109 0.79,4.733 1.803,9.422 2.891,13.78 1.108,4.351 2.338,8.357 3.443,11.769 2.256,6.816 4.133,11.219 4.133,11.219 0,0 -1.48,-4.546 -3.353,-11.45 -1.858,-6.905 -4.281,-16.142 -5.686,-25.544 -0.304,-2.354 -0.789,-4.692 -0.949,-7.02 -0.213,-2.324 -0.494,-4.613 -0.484,-6.834 -0.086,-2.22 -0.139,-4.365 0.025,-6.392 0.018,-2.043 0.264,-3.944 0.609,-5.682 0.207,-1.775 0.637,-3.334 1.12,-4.695 0.414,-1.385 0.771,-2.602 1.369,-3.463 1.015,-1.822 1.599,-2.863 1.599,-2.863 0,0 -0.256,1.357 -0.697,3.359 -0.326,0.939 -0.316,2.25 -0.432,3.633 -0.144,1.363 -0.195,2.879 -0.095,4.596 0.004,1.662 0.113,3.449 0.353,5.386 0.096,1.895 0.371,3.91 0.66,6.008 0.178,2.074 0.623,4.248 0.893,6.457 0.264,2.193 0.728,4.465 1.039,6.717 0.695,4.576 1.391,9.15 2.045,13.439 0.285,1.961 0.535,3.866 0.758,5.711 1.545,-0.104 3.08,-0.165 4.607,-0.191 -1.019,-4.682 -1.59,-9.772 -1.439,-14.947 0.029,-2.68 0.322,-5.391 0.73,-8.032 0.471,-2.652 1.065,-5.248 1.961,-7.711 0.842,-2.472 1.9,-4.793 3.201,-6.886 1.086,-2.143 2.877,-3.883 4.207,-5.469 1.698,-1.414 3.057,-2.783 4.698,-3.502 1.589,-0.752 2.822,-1.5 4.076,-1.66 2.416,-0.459 3.676,-0.529 3.676,-0.529 0,0 -1.147,0.515 -3.157,1.419 -1.064,0.37 -2.011,1.37 -3.301,2.233 -1.316,0.855 -2.298,2.353 -3.623,3.738 -0.949,1.631 -2.296,3.283 -3.076,5.332 -0.97,1.975 -1.746,4.143 -2.336,6.461 -0.652,2.291 -1.041,4.729 -1.42,7.19 -0.271,2.482 -0.562,5.002 -0.57,7.537 -0.139,5.066 0.309,10.115 0.951,14.804 0.703,4.683 1.67,9.003 2.783,12.619 1.014,3.642 2.247,6.576 3.11,8.578 0.906,2.003 1.422,3.15 1.422,3.15 0,0 -0.438,-1.177 -1.198,-3.24 -0.753,-2.068 -1.666,-5.056 -2.548,-8.7 -0.989,-3.619 -1.684,-7.947 -2.327,-12.574 -0.574,-4.64 -0.947,-9.629 -0.748,-14.602 -0.017,-2.494 0.231,-4.967 0.467,-7.401 0.338,-2.416 0.688,-4.808 1.293,-7.046 0.569,-2.258 1.223,-4.397 2.086,-6.346 0.676,-2.033 1.912,-3.65 2.779,-5.289 1.235,-1.36 2.088,-2.904 3.301,-3.819 1.186,-0.916 2.063,-1.986 3.078,-2.414 1.93,-1.037 3.034,-1.63 3.034,-1.63 0,0 -0.991,1.035 -2.516,2.523 -0.826,0.635 -1.414,1.961 -2.297,2.986 -0.887,1.049 -1.369,2.719 -2.225,4.053 -0.494,1.686 -1.283,3.209 -1.652,5.154 -0.533,1.825 -0.9,3.815 -1.223,5.918 -0.363,2.067 -0.507,4.301 -0.752,6.528 -0.103,2.271 -0.341,4.554 -0.304,6.906 -0.176,4.656 -0.018,9.39 0.136,13.871 0.018,0.398 0.036,0.784 0.055,1.18 2.528,0.236 5.029,0.571 7.5,1.001 0.01,-2.251 0.192,-4.519 0.52,-6.749 0.291,-2.594 1.08,-5.159 1.785,-7.567 1.023,-2.396 1.771,-4.717 3.211,-6.707 0.662,-0.984 1.304,-1.943 1.928,-2.871 0.769,-0.84 1.572,-1.603 2.304,-2.338 1.348,-1.56 3.041,-2.537 4.496,-3.34 0.719,-0.408 1.358,-0.81 1.987,-1.111 0.687,-0.191 1.322,-0.369 1.894,-0.531 2.266,-0.582 3.485,-0.74 3.485,-0.74 0,0 -1.063,0.586 -2.924,1.605 -0.471,0.262 -0.989,0.547 -1.555,0.857 -0.486,0.422 -1.014,0.881 -1.574,1.37 -1.151,0.957 -2.461,2.045 -3.457,3.621 -0.545,0.744 -1.115,1.521 -1.707,2.326 -0.449,0.887 -0.912,1.803 -1.389,2.744 -1.098,1.844 -1.57,4.045 -2.326,6.227 -0.467,2.246 -1.037,4.578 -1.24,6.98 -0.248,2.402 -0.448,4.846 -0.371,7.296 0.021,4.901 0.681,9.762 1.533,14.255 0.908,4.486 2.142,8.591 3.474,11.996 1.268,3.435 2.807,6.102 3.924,7.915 1.227,1.725 2.012,2.655 2.012,2.655 0,0 -0.715,-0.987 -1.813,-2.797 -1,-1.862 -2.224,-4.61 -3.359,-8.046 -1.203,-3.41 -2.164,-7.529 -3.004,-11.958 -0.781,-4.436 -1.363,-9.232 -1.318,-14.033 -0.102,-2.404 0.054,-4.79 0.265,-7.143 0.164,-2.349 0.696,-4.617 1.114,-6.814 0.734,-2.103 1.082,-4.285 2.07,-6.09 0.424,-0.935 0.836,-1.841 1.234,-2.72 0.539,-0.801 1.061,-1.571 1.559,-2.311 0.918,-1.558 2.1,-2.693 3.148,-3.717 0.518,-0.519 1,-1.007 1.448,-1.459 0.533,-0.343 1.021,-0.662 1.461,-0.947 1.779,-1.154 2.795,-1.812 2.795,-1.812 0,0 -0.862,1.082 -2.237,2.679 -0.334,0.381 -0.711,0.809 -1.117,1.272 -0.305,0.574 -0.678,1.119 -1.039,1.718 -0.74,1.176 -1.539,2.424 -2.107,3.995 -0.307,0.736 -0.627,1.502 -0.959,2.295 -0.225,0.839 -0.461,1.709 -0.702,2.603 -0.642,1.65 -0.718,3.719 -1.183,5.604 -0.178,2.031 -0.492,4.07 -0.569,6.229 -0.072,2.155 -0.23,4.336 -0.115,6.573 -0.004,0.579 0.014,1.16 0.024,1.741 2.521,0.762 5.009,1.621 7.464,2.567 0.456,-2.456 1.11,-4.897 1.911,-7.285 0.873,-2.072 1.588,-4.211 2.705,-6.138 1,-1.971 2.142,-3.836 3.414,-5.557 2.416,-3.472 5.385,-6.365 8.211,-8.496 2.894,-2.125 5.822,-3.398 7.922,-3.929 2.279,-0.434 3.441,-0.28 3.441,-0.28 0,0 -0.875,0.551 -2.412,1.51 -1.395,1.16 -3.328,2.914 -5.205,5.418 -0.871,1.285 -1.963,2.596 -2.854,4.139 -0.943,1.513 -1.955,3.107 -2.8,4.857 -1.846,3.429 -3.44,7.266 -4.918,11.145 -1.303,3.94 -2.483,7.936 -3.131,11.785 -0.407,1.912 -0.58,3.79 -0.678,5.586 -0.217,1.778 0.006,3.489 0.012,5.047 0.14,1.56 0.482,2.976 0.756,4.209 0.505,1.193 0.892,2.243 1.306,3.038 1.108,1.422 1.74,2.236 1.74,2.236 0,0 -0.562,-0.864 -1.546,-2.377 -0.34,-0.827 -0.612,-1.881 -1,-3.031 -0.151,-1.229 -0.362,-2.611 -0.446,-4.125 0.069,-1.527 -0.072,-3.178 0.229,-4.915 0.172,-1.744 0.455,-3.563 0.861,-5.436 0.69,-3.759 1.918,-7.675 3.258,-11.531 2.723,-7.71 6.443,-15.064 9.871,-20.146 0.912,-1.233 1.75,-2.36 2.49,-3.36 0.856,-0.91 1.6,-1.699 2.215,-2.353 1.436,-1.076 2.252,-1.696 2.252,-1.696 0,0 -0.441,1.065 -1.223,2.93 -0.293,0.951 -0.57,2.08 -0.966,3.17 -0.299,1.289 -0.643,2.602 -1.026,4.027 -1.431,5.801 -3.562,13.071 -6.105,20.098 -0.621,1.749 -1.268,3.508 -1.922,5.201 -0.381,1.138 -0.85,2.257 -1.289,3.348 1.861,1.037 3.703,2.118 5.517,3.249 0.463,-1.181 0.953,-2.36 1.491,-3.525 1.919,-4.014 4.336,-7.885 7.146,-11.233 1.516,-1.663 2.867,-3.212 4.533,-4.563 1.696,-1.329 3.098,-2.556 4.903,-3.453 1.726,-0.907 3.177,-1.672 4.865,-2.026 1.592,-0.395 2.803,-0.744 4.049,-0.613 2.379,0.16 3.443,0.586 3.443,0.586 0,0 -0.869,0.25 -2.398,0.681 -0.811,0.143 -1.635,0.649 -2.608,1.203 -1.021,0.497 -2.07,1.193 -3.058,2.163 -1.094,0.853 -2.137,1.914 -3.141,3.131 -1.102,1.142 -2.061,2.495 -3.022,3.912 -1.947,2.825 -3.673,6.046 -5.302,9.301 -3.073,6.611 -5.383,13.51 -6.805,18.76 -1.42,5.25 -2.043,8.821 -2.043,8.821 0,0 1.031,-3.472 2.82,-8.583 1.789,-5.103 4.215,-11.909 7.338,-18.378 1.547,-3.232 3.182,-6.434 5.037,-9.224 1.838,-2.784 3.657,-5.376 5.661,-7.136 0.925,-0.982 1.865,-1.75 2.793,-2.323 0.886,-0.631 1.652,-1.213 2.421,-1.422 1.467,-0.576 2.307,-0.906 2.307,-0.906 0,0 -0.725,0.929 -1.994,2.554 -0.568,0.592 -0.99,1.924 -1.578,2.848 -0.576,0.917 -0.989,2.423 -1.559,3.671 -0.594,1.181 -1.051,2.876 -1.68,4.31 -0.632,1.449 -1.16,3.242 -1.886,4.824 -0.672,1.67 -1.313,3.482 -2.151,5.166 -0.685,1.829 -1.584,3.556 -2.384,5.366 -0.969,2.042 -2.008,4.073 -3.086,6.061 1.345,1.067 2.673,2.156 3.99,3.267 0.588,-1.964 1.471,-3.854 2.264,-5.776 1.136,-2.031 2.111,-4.129 3.523,-5.978 1.25,-1.923 2.746,-3.661 4.301,-5.246 3.045,-3.209 6.57,-5.592 9.769,-7.168 1.594,-0.805 3.254,-1.264 4.621,-1.707 1.327,-0.509 2.7,-0.597 3.741,-0.746 2.109,-0.245 3.345,-0.161 3.345,-0.161 0,0 -0.265,0.128 -0.756,0.366 -0.464,0.279 -1.283,0.498 -2.091,1.136 -0.784,0.653 -1.877,1.312 -2.883,2.334 -1.006,1.012 -2.248,2.081 -3.33,3.468 -4.662,5.305 -9.826,13.182 -14.375,21.374 -3.701,6.882 -6.981,13.971 -9.215,20.034 -0.447,1.209 -0.867,2.392 -1.223,3.51 -1.131,3.33 -1.328,6.238 -1.611,8.274 -0.039,0.204 -0.037,0.394 -0.033,0.581 -0.078,0.734 -0.084,1.355 -0.151,1.789 -0.046,0.545 0.155,0.837 0.155,0.837 v -0.842 c 0,-0.431 -0.127,-1.046 -0.145,-1.784 0.018,-0.184 0.111,-0.368 0.164,-0.563 0.406,-1.992 1.197,-4.762 2.442,-8.028 0.261,-0.685 0.564,-1.402 0.857,-2.127 2.488,-6.17 6.039,-13.693 10.064,-20.986 2.247,-4.078 4.532,-8.125 6.907,-11.78 2.347,-3.674 4.603,-7.064 6.799,-9.766 1.031,-1.408 2.156,-2.535 3.07,-3.619 0.916,-1.086 1.922,-1.795 2.654,-2.511 0.748,-0.692 1.524,-0.957 1.975,-1.275 0.472,-0.273 0.726,-0.422 0.726,-0.422 0,0 -0.494,1.243 -1.4,3.02 -0.947,1.725 -2.07,4.271 -3.402,6.931 -2.409,5.071 -5.625,11.834 -8.838,18.596 -1.627,3.419 -3.352,6.867 -5.057,10.146 0.506,0.514 1.01,1.028 1.51,1.545 0.883,-1.792 1.91,-3.559 3.117,-5.238 3.795,-5.322 9.463,-9.797 15.098,-11.551 2.781,-0.898 5.539,-1.004 7.314,-0.675 1.924,0.478 2.68,1.106 2.68,1.106 0,0 -0.236,0.054 -0.682,0.156 -0.424,0.151 -1.15,0.148 -1.906,0.563 -0.738,0.424 -1.773,0.756 -2.725,1.489 -0.984,0.679 -2.14,1.412 -3.216,2.416 -4.541,3.781 -9.756,9.679 -14.563,15.836 -3.166,4.143 -6.178,8.38 -8.752,12.226 -1.287,1.925 -2.473,3.759 -3.498,5.423 -3.103,4.976 -4.873,8.462 -4.873,8.462 0,0 2.133,-3.271 5.549,-8.014 0.902,-1.263 1.888,-2.646 2.935,-4.098 2.889,-4.014 6.258,-8.619 9.78,-13.113 4.709,-6.186 9.757,-12.106 13.961,-16.113 1.027,-1.033 2.076,-1.835 2.982,-2.597 0.871,-0.809 1.828,-1.206 2.523,-1.698 0.711,-0.475 1.403,-0.526 1.817,-0.719 0.439,-0.145 0.668,-0.219 0.668,-0.219 0,0 -0.756,0.96 -1.451,2.129 -0.297,0.643 -0.655,1.426 -1.067,2.324 -0.33,0.868 -0.701,1.849 -1.109,2.923 -0.797,2.076 -1.764,4.356 -2.986,6.758 -1.225,2.365 -2.713,4.817 -4.405,7.178 -1.857,2.564 -4.013,4.989 -6.281,7.123 0.473,0.558 0.941,1.118 1.406,1.68 2.117,-1.923 4.344,-3.78 6.641,-5.548 8.801,-6.709 18.695,-11.844 26.926,-14.377 4.131,-1.255 7.718,-1.988 10.404,-2.185 1.328,-0.127 2.361,-0.123 3.178,0.016 0.74,0.121 1.041,0.237 1.041,0.237 0,0 -0.328,0.077 -0.948,0.222 -0.642,0.08 -1.474,0.507 -2.568,0.974 -2.162,0.976 -5.16,2.564 -8.648,4.657 -6.989,4.149 -15.916,10.28 -24.569,16.795 -4.285,3.311 -8.523,6.681 -12.363,10.009 -3.881,3.276 -7.293,6.589 -10.102,9.531 -1.466,1.413 -2.585,2.927 -3.646,4.194 -1.109,1.22 -1.764,2.58 -2.443,3.542 -0.737,0.952 -0.817,1.937 -1.098,2.498 -0.213,0.598 -0.324,0.915 -0.324,0.915 0,0 0.133,-0.311 0.383,-0.895 0.318,-0.544 0.466,-1.528 1.265,-2.421 0.748,-0.918 1.424,-2.153 2.615,-3.307 1.139,-1.186 2.33,-2.59 3.829,-3.957 2.871,-2.836 6.435,-5.926 10.332,-9.144 3.857,-3.258 8.123,-6.566 12.429,-9.811 8.557,-6.569 17.385,-12.796 24.131,-17.259 3.4,-2.186 6.219,-4.046 8.318,-5.13 1.045,-0.534 1.848,-1.012 2.473,-1.129 0.611,-0.184 0.934,-0.284 0.934,-0.284 0,0 -0.289,0.256 -0.834,0.741 -0.459,0.34 -1.057,1.244 -1.877,2.121 -1.569,1.864 -3.797,4.575 -6.547,7.602 -5.514,6.08 -13.373,13.303 -21.775,19.676 -2.264,1.713 -4.571,3.363 -6.862,4.948 0.945,1.293 1.877,2.587 2.791,3.88 4.783,-4.998 11.795,-10.247 19.699,-14.026 8.166,-3.925 17.362,-6.246 24.946,-5.998 1.834,-0.002 3.648,0.272 5.222,0.605 1.493,0.17 3.004,0.86 4.034,1.298 1.041,0.319 1.869,1.281 2.283,1.612 0.433,0.428 0.603,0.668 0.603,0.668 0,0.002 -1.347,-0.742 -3.916,-0.481 -2.535,0.182 -6.107,0.961 -10.209,2.362 -8.226,2.776 -18.799,7.471 -29.183,12.501 -7.319,3.727 -14.532,7.607 -20.811,11.071 -2.543,1.402 -4.945,2.745 -7.119,3.969 -7.502,4.307 -12.369,7.403 -12.369,7.403 0,0 5.098,-2.689 12.746,-6.722 2.213,-1.188 4.666,-2.489 7.26,-3.85 6.326,-3.317 13.584,-7.025 20.937,-10.577 10.258,-5.225 20.684,-10.134 28.793,-13.057 4.053,-1.441 7.485,-2.57 9.979,-2.856 2.511,-0.414 3.892,0.239 3.892,0.237 0,0 -0.322,0.098 -0.931,0.278 -0.608,0.213 -1.196,0.33 -2.106,0.896 -1.711,0.977 -3.84,2.427 -6.478,4.375 -2.604,1.786 -5.696,3.971 -9.096,5.983 -3.406,2.092 -7.143,4.097 -11,5.973 -7.064,3.359 -14.611,5.955 -21.063,7.311 0.84,1.276 1.663,2.55 2.469,3.818 6.842,-2.256 14.346,-4.161 21.965,-5.481 14.029,-2.442 28.449,-2.909 39.432,-1.32 5.478,0.812 10.086,1.99 13.232,3.494 1.594,0.743 2.695,1.47 3.449,2.416 0.573,0.763 0.368,1.295 0.459,1.273 -0.058,0.054 -0.107,-0.493 -0.793,-0.948 -0.656,-0.545 -1.863,-0.863 -3.369,-1.164 -3.037,-0.542 -7.457,-0.718 -12.717,-0.452 -10.533,0.515 -24.48,2.255 -38.33,4.549 -13.814,2.522 -27.511,5.603 -37.658,8.43 -5.08,1.395 -9.217,2.888 -12.074,4.02 -2.852,1.149 -4.389,2.005 -4.389,2.005 0,0 1.58,-0.778 4.475,-1.775 2.887,-1.031 7.115,-2.158 12.193,-3.497 10.158,-2.644 23.891,-5.472 37.703,-7.758 13.768,-2.527 27.655,-4.502 38.123,-5.195 5.223,-0.327 9.608,-0.519 12.637,-0.086 1.498,0.215 2.711,0.481 3.361,0.969 0.707,0.409 0.788,0.962 0.838,0.902 -0.019,0.09 -0.351,-0.476 -1.17,-0.58 -0.556,-0.086 -1.875,0.06 -3.279,0.288 -2.92,0.53 -7.115,1.726 -12.125,3.125 -10.023,2.795 -23.433,6.044 -37.021,8.426 -5.532,0.966 -11.088,1.786 -16.446,2.454 0.116,0.201 0.229,0.403 0.344,0.603 0.647,-0.058 1.289,-0.118 1.945,-0.169 3.813,-0.207 7.772,-0.478 11.774,-0.413 4.008,0 8.076,0.12 12.129,0.387 8.103,0.518 16.162,1.654 23.652,3.158 7.492,1.512 14.412,3.512 20.242,5.694 5.869,2.297 10.44,4.496 13.785,6.79 1.68,0.979 2.62,2.002 3.278,2.736 0.656,0.723 1.006,1.111 1.006,1.111 0,0 -0.43,-0.247 -1.246,-0.709 -0.788,-0.518 -1.995,-1.139 -3.678,-1.669 -3.281,-1.277 -8.125,-2.53 -14,-3.713 -11.764,-2.33 -27.635,-4.258 -43.565,-5.448 -7.974,-0.505 -15.959,-0.69 -23.447,-0.762 -7.49,0.018 -14.48,0.225 -20.455,0.693 -2.986,0.298 -5.73,0.46 -8.129,0.908 -2.4,0.43 -4.506,0.701 -6.207,1.103 -3.383,0.883 -5.312,1.389 -5.312,1.389 0,0 1.947,-0.419 5.355,-1.151 1.713,-0.322 3.83,-0.5 6.229,-0.821 2.398,-0.33 5.15,-0.365 8.119,-0.65 5.955,-0.374 12.925,-0.474 20.388,-0.378 7.465,0.183 15.422,0.498 23.36,1.113 15.898,0.943 31.769,2.628 43.519,4.768 2.918,0.608 5.639,0.977 7.989,1.578 2.376,0.519 4.425,1.009 6.06,1.594 1.688,0.446 2.938,1.015 3.746,1.499 0.832,0.427 1.274,0.656 1.274,0.656 0,0 -0.526,-0.086 -1.512,-0.254 -0.484,-0.093 -1.086,-0.212 -1.787,-0.349 -0.686,-0.024 -1.479,-0.053 -2.36,-0.087 -1.607,-0.115 -3.707,-0.021 -6.15,-0.098 -2.373,-0.098 -5.186,0.088 -8.113,0.009 -5.934,0.002 -12.821,-0.073 -20.188,-0.288 -7.363,-0.197 -15.183,-0.629 -22.998,-1.081 -5.48,-0.399 -10.939,-0.799 -16.242,-1.266 0.43,0.864 0.85,1.717 1.256,2.554 8.474,0.76 17.547,2.207 26.48,4.4 16.371,3.943 32.317,10.486 43.114,18.048 2.732,1.739 5.043,3.85 7.043,5.611 2.052,1.637 3.662,3.899 4.877,5.278 1.212,1.469 1.621,2.934 2.16,3.789 0.433,0.916 0.668,1.405 0.668,1.405 0,0 -0.352,-0.38 -1.008,-1.09"
           style="fill:#231f20;fill-opacity:1;fill-rule:nonzero;stroke:none"
           id="path2814"
           inkscape:connector-curvature="0" /><path
           d="m 44.707,555.645 c 1.068,-1.446 2.104,-3.451 3.801,-5.318 1.638,-1.914 3.43,-4.147 5.739,-6.232 8.851,-8.73 22.146,-18.676 36.032,-27.625 13.984,-8.819 28.524,-16.704 39.7,-22.057 5.566,-2.719 10.367,-4.641 13.712,-6.002 3.374,-1.282 5.305,-2.013 5.305,-2.013 0,0 -1.895,0.813 -5.213,2.236 -3.299,1.458 -7.933,3.717 -13.462,6.479 -11.067,5.5 -25.456,13.594 -39.264,22.573 -13.969,8.714 -27.358,18.429 -36.269,26.97 -2.304,2.06 -4.165,4.176 -5.883,6.005 -1.768,1.79 -2.846,3.692 -3.984,5.095 -1.055,1.459 -1.501,2.844 -1.985,3.677 -0.431,0.866 -0.66,1.329 -0.66,1.329 0,0 0.208,-0.473 0.601,-1.355 0.449,-0.852 0.837,-2.254 1.83,-3.762"
           style="fill:#ffffff;fill-opacity:1;fill-rule:nonzero;stroke:none"
           id="path2816"
           inkscape:connector-curvature="0" /><path
           d="m 39.892,519.253 c 2.688,-2.271 6.869,-5.021 12.046,-8.043 10.377,-6.003 24.775,-12.964 39.463,-19.24 7.384,-3.055 14.882,-5.818 21.944,-8.307 7.093,-2.402 13.773,-4.471 19.583,-5.958 2.918,-0.682 5.569,-1.42 7.985,-1.771 2.41,-0.371 4.488,-0.794 6.23,-0.965 3.483,-0.256 5.473,-0.404 5.473,-0.404 0,0 -1.978,0.236 -5.44,0.643 -1.723,0.249 -3.783,0.764 -6.16,1.235 -2.376,0.466 -4.988,1.323 -7.89,2.014 -5.758,1.572 -12.385,3.734 -19.419,6.238 -7.003,2.586 -14.433,5.462 -21.746,8.606 -14.739,6.034 -29.214,12.761 -39.64,18.588 -2.568,1.519 -5.024,2.746 -7.049,4.078 -2.079,1.255 -3.863,2.385 -5.217,3.466 -1.454,0.969 -2.452,1.91 -3.059,2.63 -0.65,0.674 -0.996,1.034 -0.996,1.034 0,0 0.33,-0.375 0.949,-1.075 0.576,-0.743 1.52,-1.725 2.943,-2.769"
           style="fill:#ffffff;fill-opacity:1;fill-rule:nonzero;stroke:none"
           id="path2818"
           inkscape:connector-curvature="0" /><path
           d="m 45.526,482.093 c 2.701,-1.5 6.829,-3.097 11.895,-4.544 10.133,-2.921 23.893,-5.782 37.74,-8.092 13.881,-2.079 27.844,-3.597 38.362,-4.201 5.257,-0.323 9.653,-0.248 12.722,-0.098 3.074,0.165 4.801,0.475 4.801,0.475 0,0 -1.742,-0.222 -4.807,-0.231 -3.066,-0.043 -7.432,0.258 -12.666,0.634 -10.469,0.78 -24.379,2.547 -38.189,4.849 -13.844,2.059 -27.623,4.683 -37.753,7.413 -5.053,1.384 -9.266,2.621 -11.991,4.009 -1.344,0.688 -2.408,1.331 -2.865,2.001 -0.532,0.617 -0.43,1.166 -0.499,1.126 0.072,0.035 -0.058,-0.5 0.441,-1.155 0.447,-0.73 1.483,-1.417 2.809,-2.186"
           style="fill:#ffffff;fill-opacity:1;fill-rule:nonzero;stroke:none"
           id="path2820"
           inkscape:connector-curvature="0" /><path
           d="m 75.566,445.382 c 8.684,-0.037 20.203,0.988 31.655,2.391 8.133,1.159 16.212,2.496 23.272,3.743 2.861,0.506 5.57,0.999 8.022,1.456 8.493,1.65 14.102,3.005 14.102,3.005 0,0 -5.693,-0.898 -14.235,-2.239 -2.478,-0.407 -5.218,-0.846 -8.111,-1.294 -7.06,-1.095 -15.129,-2.256 -23.239,-3.241 -11.39,-1.626 -22.854,-2.895 -31.47,-3.044 -4.299,-0.05 -7.907,-0.012 -10.365,0.524 -2.509,0.423 -3.603,1.487 -3.605,1.485 0.002,0.002 1.033,-1.139 3.552,-1.721 2.455,-0.65 6.085,-1.065 10.422,-1.065"
           style="fill:#ffffff;fill-opacity:1;fill-rule:nonzero;stroke:none"
           id="path2822"
           inkscape:connector-curvature="0" /><path
           d="m 78.343,419.266 c 2.363,0.223 5.716,0.758 9.684,1.611 7.957,1.665 18.396,4.58 28.684,7.948 5.127,1.746 10.229,3.567 14.94,5.47 4.731,1.849 9.031,3.88 12.642,5.757 1.841,0.858 3.396,1.932 4.808,2.785 1.444,0.795 2.503,1.872 3.454,2.561 1.008,0.662 1.4,1.566 1.849,2.009 0.394,0.499 0.603,0.762 0.603,0.762 0,0 -0.225,-0.253 -0.653,-0.721 -0.476,-0.411 -0.936,-1.297 -1.979,-1.887 -1.007,-0.625 -2.044,-1.572 -3.546,-2.28 -1.462,-0.752 -3.045,-1.696 -4.9,-2.507 -3.636,-1.755 -8.009,-3.526 -12.736,-5.311 -4.707,-1.838 -9.81,-3.588 -14.938,-5.264 -10.219,-3.45 -20.586,-6.488 -28.415,-8.528 -3.923,-0.971 -7.195,-1.818 -9.526,-2.166 -1.166,-0.163 -2.083,-0.359 -2.711,-0.267 -0.633,0.022 -0.974,0.034 -0.974,0.034 0,0 0.337,-0.034 0.966,-0.096 0.64,-0.133 1.564,0 2.748,0.09"
           style="fill:#ffffff;fill-opacity:1;fill-rule:nonzero;stroke:none"
           id="path2824"
           inkscape:connector-curvature="0" /><path
           d="m 105.199,400.857 c 0.835,0.161 1.924,0.145 3.06,0.526 1.15,0.326 2.483,0.644 3.826,1.245 5.521,2.109 12.36,6.005 18.904,10.278 4.335,2.898 8.556,5.933 12.238,8.742 1.839,1.403 3.554,2.754 5.064,3.995 4.541,3.707 7.344,6.429 7.344,6.429 0,0 -3.074,-2.403 -7.84,-5.787 -1.262,-0.902 -2.641,-1.889 -4.1,-2.926 -4.034,-2.863 -8.714,-6.133 -13.502,-9.246 -6.454,-4.331 -13.15,-8.298 -18.421,-10.732 -1.308,-0.644 -2.558,-1.067 -3.662,-1.493 -1.09,-0.485 -2.119,-0.549 -2.936,-0.79 -0.827,-0.221 -1.497,-0.045 -1.953,-0.094 -0.46,0.007 -0.704,0.009 -0.704,0.009 0,0 0.24,-0.026 0.697,-0.07 0.449,0.005 1.136,-0.233 1.985,-0.086"
           style="fill:#ffffff;fill-opacity:1;fill-rule:nonzero;stroke:none"
           id="path2826"
           inkscape:connector-curvature="0" /><path
           d="m 108.411,375.351 c 0.954,0.365 2.205,0.632 3.482,1.28 1.278,0.628 2.802,1.24 4.275,2.202 6.127,3.513 13.56,9.298 20.513,15.575 5.727,5.315 11.122,10.965 15.199,15.978 0.813,1.001 1.594,1.986 2.292,2.927 2.147,2.787 3.617,5.355 4.545,7.192 0.507,0.894 0.648,1.703 0.865,2.205 0.182,0.518 0.278,0.791 0.278,0.791 0,0 -0.116,-0.268 -0.336,-0.77 -0.255,-0.482 -0.46,-1.284 -1.031,-2.134 -1.026,-1.752 -2.73,-4.097 -4.959,-6.784 -0.497,-0.597 -1.028,-1.215 -1.573,-1.843 -4.348,-5.012 -10.134,-10.931 -16.255,-16.49 -3.44,-3.135 -6.931,-6.22 -10.362,-8.91 -3.409,-2.716 -6.649,-5.19 -9.6,-7.04 -1.434,-0.999 -2.861,-1.7 -4.078,-2.431 -1.217,-0.734 -2.404,-1.078 -3.327,-1.516 -0.933,-0.411 -1.753,-0.411 -2.28,-0.567 -0.537,-0.107 -0.825,-0.163 -0.825,-0.163 0,0 0.288,0.034 0.83,0.102 0.529,0.112 1.379,0.053 2.347,0.396"
           style="fill:#ffffff;fill-opacity:1;fill-rule:nonzero;stroke:none"
           id="path2828"
           inkscape:connector-curvature="0" /><path
           d="m 125.129,358.116 c 1.124,0.138 2.345,0.46 3.593,1.056 1.31,0.458 2.643,1.123 3.988,1.948 1.409,0.725 2.752,1.694 4.12,2.726 2.761,2.04 5.433,4.529 8.029,7.087 5.044,5.258 9.461,11.044 12.506,15.549 3.042,4.51 4.788,7.688 4.788,7.688 0,0 -2.103,-2.951 -5.445,-7.211 -3.349,-4.249 -7.84,-9.904 -12.888,-15.019 -2.512,-2.556 -5.096,-5.06 -7.752,-7.097 -2.638,-2.041 -5.198,-3.902 -7.665,-4.923 -1.191,-0.631 -2.329,-1.055 -3.393,-1.291 -1.044,-0.312 -1.959,-0.616 -2.749,-0.564 -1.576,-0.072 -2.48,-0.113 -2.48,-0.113 0,0 0.906,-0.048 2.493,-0.129 0.809,-0.131 1.758,0.084 2.855,0.293"
           style="fill:#ffffff;fill-opacity:1;fill-rule:nonzero;stroke:none"
           id="path2830"
           inkscape:connector-curvature="0" /><path
           d="m 145.828,338.2 c 1.241,0.934 2.698,1.82 4.038,2.995 1.385,1.125 2.853,2.308 4.222,3.693 2.855,2.645 5.601,5.761 8.26,8.953 2.505,3.309 4.914,6.703 6.771,10.138 1,1.678 1.776,3.4 2.447,5.066 0.781,1.61 1.123,3.305 1.62,4.78 0.374,1.52 0.503,2.971 0.648,4.227 -0.097,1.295 -0.118,2.413 -0.251,3.298 -0.592,1.705 -0.929,2.679 -0.929,2.679 0,0 0.252,-0.999 0.697,-2.75 0.053,-0.892 -0.029,-1.978 -0.037,-3.192 -0.253,-1.208 -0.497,-2.589 -0.908,-4.045 -0.564,-1.426 -0.959,-3.033 -1.809,-4.575 -0.724,-1.598 -1.581,-3.228 -2.569,-4.868 -1.873,-3.337 -4.297,-6.645 -6.817,-9.858 -5.068,-6.416 -10.965,-12.172 -15.851,-15.871 -1.263,-0.875 -2.419,-1.666 -3.444,-2.376 -1.103,-0.581 -2.063,-1.093 -2.855,-1.511 -1.707,-0.558 -2.683,-0.875 -2.683,-0.875 0,0 1.008,0.237 2.771,0.648 1.695,0.645 4.097,1.684 6.679,3.444"
           style="fill:#ffffff;fill-opacity:1;fill-rule:nonzero;stroke:none"
           id="path2832"
           inkscape:connector-curvature="0" /><path
           d="m 163.326,321.59 c 0.595,0.245 1.243,0.509 1.93,0.787 1.4,0.536 2.989,1.145 4.441,2.311 0.758,0.529 1.549,1.078 2.366,1.647 0.714,0.695 1.449,1.414 2.207,2.153 1.632,1.386 2.793,3.316 4.213,5.134 1.165,1.974 2.461,3.999 3.434,6.206 1.008,2.19 1.988,4.442 2.709,6.784 1.562,4.646 2.512,9.459 3.156,13.987 0.592,4.542 0.748,8.821 0.592,12.475 -0.087,3.657 -0.684,6.677 -1.151,8.755 -0.605,2.033 -1.048,3.165 -1.048,3.165 0,0 0.361,-1.163 0.815,-3.23 0.341,-2.087 0.612,-5.084 0.573,-8.704 0.037,-3.615 -0.385,-7.822 -1.022,-12.287 -0.695,-4.451 -1.695,-9.178 -3.29,-13.705 -0.681,-2.307 -1.605,-4.515 -2.561,-6.672 -0.916,-2.17 -2.153,-4.144 -3.259,-6.086 -1.372,-1.755 -2.412,-3.707 -3.927,-5.095 -0.705,-0.748 -1.39,-1.474 -2.052,-2.175 -0.767,-0.582 -1.508,-1.143 -2.219,-1.683 -1.375,-1.18 -2.86,-1.869 -4.185,-2.497 -0.655,-0.325 -1.269,-0.631 -1.841,-0.914 -0.614,-0.156 -1.178,-0.298 -1.685,-0.424 -2.059,-0.52 -3.232,-0.814 -3.232,-0.814 0,0 1.196,0.21 3.288,0.575 0.528,0.095 1.111,0.2 1.748,0.307"
           style="fill:#ffffff;fill-opacity:1;fill-rule:nonzero;stroke:none"
           id="path2834"
           inkscape:connector-curvature="0" /><path
           d="m 177.054,298.959 c 1.523,0.383 2.935,1.482 4.632,2.367 1.435,1.237 3.241,2.362 4.641,4.047 1.553,1.556 2.989,3.358 4.297,5.359 1.358,1.956 2.517,4.14 3.667,6.35 1.063,2.256 2.15,4.549 2.98,6.944 1.767,4.749 2.979,9.673 3.887,14.32 0.847,4.656 1.33,9.059 1.446,12.839 0.22,3.771 0.002,6.947 -0.166,9.123 -0.208,2.19 -0.326,3.439 -0.326,3.439 0,0 0.032,-1.257 0.085,-3.452 0.045,-2.204 -0.058,-5.325 -0.403,-9.059 -0.236,-3.74 -0.979,-8.065 -1.867,-12.653 -0.956,-4.572 -2.215,-9.415 -4.015,-14.056 -0.789,-2.364 -1.821,-4.625 -2.833,-6.855 -1.1,-2.172 -2.204,-4.329 -3.503,-6.246 -1.271,-1.953 -2.576,-3.769 -4.024,-5.331 -1.3,-1.702 -2.991,-2.837 -4.342,-4.109 -1.61,-0.884 -2.916,-2.07 -4.356,-2.545 -1.419,-0.482 -2.595,-1.212 -3.696,-1.287 -2.161,-0.359 -3.399,-0.562 -3.399,-0.562 0,0 1.255,0.115 3.448,0.322 1.128,0.004 2.35,0.645 3.847,1.045"
           style="fill:#ffffff;fill-opacity:1;fill-rule:nonzero;stroke:none"
           id="path2836"
           inkscape:connector-curvature="0" /><path
           d="m 201.58,286.473 c 1.003,1.086 2.042,2.386 2.874,4 0.976,1.531 1.913,3.252 2.684,5.179 0.904,1.871 1.662,3.916 2.314,6.078 0.769,2.125 1.28,4.395 1.869,6.687 0.639,2.285 0.981,4.665 1.48,7.012 0.783,4.734 1.345,9.496 1.719,13.971 0.36,4.476 0.493,8.667 0.547,12.253 0.073,7.181 -0.28,11.951 -0.28,11.951 0,0 -0.071,-4.782 -0.529,-11.919 -0.477,-7.133 -1.169,-16.657 -2.883,-26.01 -0.468,-2.323 -0.769,-4.69 -1.37,-6.948 -0.552,-2.27 -1.025,-4.522 -1.751,-6.622 -0.637,-2.128 -1.282,-4.175 -2.09,-6.042 -0.678,-1.928 -1.525,-3.645 -2.414,-5.182 -0.773,-1.613 -1.68,-2.945 -2.578,-4.078 -0.84,-1.178 -1.57,-2.213 -2.413,-2.836 -1.552,-1.393 -2.441,-2.19 -2.441,-2.19 0,0 0.948,0.731 2.604,2.012 0.906,0.57 1.718,1.555 2.658,2.684"
           style="fill:#ffffff;fill-opacity:1;fill-rule:nonzero;stroke:none"
           id="path2838"
           inkscape:connector-curvature="0" /><path
           d="m 228.505,300.801 c 0.826,2.705 1.623,5.936 1.986,9.445 0.455,3.502 0.642,7.256 0.769,11.008 0.056,7.513 -0.479,15.008 -1.327,20.574 -0.77,5.593 -2.11,9.122 -2.106,9.122 0,0 0.261,-0.903 0.539,-2.513 0.277,-1.605 0.512,-3.922 0.761,-6.706 0.452,-5.564 0.842,-13.016 0.684,-20.453 -0.067,-3.716 -0.18,-7.437 -0.569,-10.891 -0.31,-3.465 -0.825,-6.67 -1.52,-9.352 -0.292,-1.363 -0.831,-2.508 -1.15,-3.597 -0.438,-1.028 -0.978,-1.85 -1.351,-2.575 -1.042,-1.207 -1.741,-1.861 -1.741,-1.861 0,0 0.738,0.564 1.937,1.711 0.99,1.318 2.266,3.357 3.088,6.088"
           style="fill:#ffffff;fill-opacity:1;fill-rule:nonzero;stroke:none"
           id="path2840"
           inkscape:connector-curvature="0" /><path
           d="m 248.759,307.83 c -0.397,0.897 -1.021,1.805 -1.399,2.953 -1.848,4.422 -3.24,10.715 -3.876,17.092 -0.771,6.37 -0.887,12.82 -0.908,17.653 -0.035,4.838 0.098,8.076 0.098,8.076 0,0 -0.552,-3.194 -0.91,-8.047 -0.376,-4.852 -0.401,-11.361 0.279,-17.84 0.355,-3.236 0.953,-6.451 1.705,-9.418 0.294,-1.503 0.875,-2.884 1.311,-4.216 0.404,-1.345 1.089,-2.513 1.561,-3.64 0.436,-1.149 1.185,-2.034 1.691,-2.885 0.502,-0.86 1.06,-1.522 1.564,-2.037 0.947,-1.05 1.49,-1.652 1.49,-1.652 0,0 -0.471,0.656 -1.299,1.8 -0.435,0.552 -0.908,1.26 -1.307,2.161"
           style="fill:#ffffff;fill-opacity:1;fill-rule:nonzero;stroke:none"
           id="path2842"
           inkscape:connector-curvature="0" /><path
           d="m 137.143,494.921 c 1.304,-0.851 3.015,-1.897 5.031,-3.055 0.982,-0.563 2.033,-1.152 3.155,-1.76 3.418,-1.89 7.428,-3.993 11.696,-6.231 4.256,-2.27 8.799,-4.625 13.216,-7.168 2.222,-1.239 4.425,-2.509 6.555,-3.813 2.067,-1.391 4.264,-2.536 6.17,-3.938 3.984,-2.591 7.466,-5.303 10.374,-7.759 1.514,-1.18 2.695,-2.442 3.846,-3.506 1.161,-1.057 2.115,-2.031 2.818,-2.911 1.542,-1.695 2.421,-2.664 2.421,-2.664 0,0 -0.535,1.202 -1.468,3.309 -0.456,1.082 -1.105,2.339 -2.047,3.656 -0.89,1.347 -1.833,2.965 -3.181,4.431 -1.276,1.539 -2.648,3.249 -4.352,4.776 -1.619,1.639 -3.4,3.274 -5.388,4.779 -3.85,3.191 -8.353,6.009 -12.905,8.682 -9.222,5.156 -19.007,8.979 -26.431,11.391 -3.713,1.239 -6.828,2.15 -8.998,2.807 -0.545,0.169 -1.032,0.321 -1.456,0.453 -1.284,0.399 -1.991,0.62 -1.991,0.62 0,0 1.024,-0.826 2.935,-2.099"
           style="fill:#ffffff;fill-opacity:1;fill-rule:nonzero;stroke:none"
           id="path2844"
           inkscape:connector-curvature="0" /><path
           d="m 179.244,447.91 c 3.759,-1.048 7.29,-2.516 10.632,-3.825 1.541,-0.85 3.24,-1.396 4.599,-2.265 1.413,-0.807 2.787,-1.537 3.914,-2.404 1.213,-0.783 2.24,-1.595 3.089,-2.407 0.897,-0.773 1.712,-1.45 2.221,-2.143 1.191,-1.316 1.873,-2.068 1.873,-2.068 0,0 -0.275,0.957 -0.896,2.682 -0.267,0.895 -0.782,1.871 -1.488,2.94 -0.629,1.139 -1.459,2.346 -2.577,3.469 -1.012,1.259 -2.291,2.401 -3.729,3.524 -1.375,1.23 -3.03,2.149 -4.701,3.224 -1.743,0.858 -3.492,1.969 -5.41,2.657 -1.89,0.784 -3.825,1.52 -5.786,2.14 -3.942,1.193 -7.914,2.128 -11.668,2.712 -3.75,0.637 -7.253,0.996 -10.263,1.228 -5.991,0.421 -10.06,0.664 -10.058,0.661 0,0 0.895,-0.506 2.491,-1.291 1.638,-0.727 4.038,-1.695 6.911,-2.616 5.737,-1.933 13.466,-3.834 20.846,-6.218"
           style="fill:#ffffff;fill-opacity:1;fill-rule:nonzero;stroke:none"
           id="path2846"
           inkscape:connector-curvature="0" /><path
           d="m 197.672,428.44 c 1.788,-0.459 3.393,-1.098 5.017,-1.569 1.499,-0.654 3.014,-1.165 4.307,-1.794 1.191,-0.741 2.55,-1.185 3.426,-1.936 0.885,-0.728 1.912,-1.218 2.451,-1.871 1.245,-1.273 1.957,-1.998 1.957,-1.998 0,0 -0.309,0.941 -1.037,2.692 -0.333,0.904 -1.098,1.724 -1.869,2.808 -0.749,1.144 -1.936,1.978 -3.13,3.103 -1.242,1.031 -2.707,1.956 -4.28,2.919 -1.615,0.788 -3.296,1.83 -5.149,2.462 -3.639,1.565 -7.68,2.615 -11.706,3.558 -8.105,1.716 -16.304,2.175 -22.421,2.159 -6.11,-0.04 -10.23,-0.379 -10.23,-0.379 0.003,0.003 3.881,-1.584 9.852,-2.912 5.935,-1.438 13.856,-2.847 21.59,-4.533 3.881,-0.785 7.711,-1.706 11.222,-2.709"
           style="fill:#ffffff;fill-opacity:1;fill-rule:nonzero;stroke:none"
           id="path2848"
           inkscape:connector-curvature="0" /><path
           d="m 211.531,411.341 c 2.186,-0.815 3.969,-1.681 5.12,-2.445 1.147,-0.776 1.879,-1.208 1.879,-1.208 0,0 -0.426,0.676 -1.318,1.841 -0.415,0.619 -1.084,1.18 -1.825,1.889 -0.719,0.75 -1.622,1.461 -2.687,2.128 -2.06,1.468 -4.721,2.711 -7.63,3.815 -2.913,1.084 -6.122,1.889 -9.346,2.504 -6.469,1.151 -13.027,1.342 -17.914,0.891 -2.448,-0.179 -4.463,-0.597 -5.885,-0.873 -1.402,-0.298 -2.166,-0.611 -2.166,-0.611 0,0 3.258,-0.267 7.989,-0.996 4.744,-0.648 11.023,-1.552 17.197,-2.683 6.199,-1.059 12.246,-2.562 16.586,-4.252"
           style="fill:#ffffff;fill-opacity:1;fill-rule:nonzero;stroke:none"
           id="path2850"
           inkscape:connector-curvature="0" /><path
           d="m 216.632,400.829 c 1.307,-0.204 2.63,-0.178 3.808,-0.467 1.204,-0.203 2.341,-0.424 3.329,-0.812 1.027,-0.297 1.934,-0.641 2.704,-1.05 0.802,-0.356 1.505,-0.685 1.979,-1.103 1.063,-0.736 1.669,-1.158 1.669,-1.158 0,0 -0.473,0.579 -1.305,1.589 -0.402,0.545 -1.03,1.031 -1.777,1.589 -0.712,0.619 -1.592,1.208 -2.653,1.645 -2.049,1.062 -4.644,1.821 -7.453,2.304 -2.817,0.421 -5.85,0.538 -8.847,0.399 -6.009,-0.264 -11.84,-1.583 -16.11,-2.781 -4.265,-1.224 -7.056,-2.229 -7.056,-2.229 0,0 0.747,-0.005 2.038,0.097 1.296,0.137 3.148,0.252 5.331,0.54 4.38,0.52 10.18,1.196 15.934,1.478 2.881,0.197 5.743,0.114 8.409,-0.041"
           style="fill:#ffffff;fill-opacity:1;fill-rule:nonzero;stroke:none"
           id="path2852"
           inkscape:connector-curvature="0" /><path
           d="m 228.11,386.655 c 1.307,-0.205 2.632,-0.178 3.808,-0.468 1.204,-0.202 2.341,-0.424 3.329,-0.81 1.029,-0.298 1.936,-0.642 2.704,-1.051 0.801,-0.355 1.506,-0.684 1.979,-1.103 1.063,-0.736 1.669,-1.158 1.669,-1.158 0,0 -0.473,0.578 -1.305,1.589 -0.401,0.544 -1.03,1.033 -1.777,1.591 -0.712,0.618 -1.592,1.205 -2.653,1.643 -2.049,1.06 -4.643,1.82 -7.453,2.303 -2.816,0.422 -5.85,0.54 -8.846,0.399 -6.008,-0.263 -11.841,-1.583 -16.111,-2.779 -4.264,-1.226 -7.056,-2.229 -7.056,-2.229 0,0 0.748,-0.005 2.039,0.097 1.295,0.137 3.147,0.251 5.33,0.54 4.38,0.52 10.18,1.196 15.934,1.477 2.882,0.198 5.744,0.115 8.409,-0.041"
           style="fill:#ffffff;fill-opacity:1;fill-rule:nonzero;stroke:none"
           id="path2854"
           inkscape:connector-curvature="0" /><path
           d="m 250.914,372.923 c -2.815,0.422 -5.848,0.54 -8.845,0.399 -6.009,-0.263 -11.84,-1.583 -16.112,-2.781 -4.264,-1.224 -7.055,-2.227 -7.055,-2.227 0,0 0.748,-0.007 2.037,0.096 1.296,0.138 3.149,0.251 5.332,0.539 4.379,0.52 10.179,1.196 15.934,1.477 2.881,0.199 5.745,0.115 8.408,-0.041 1.309,-0.202 2.632,-0.177 3.809,-0.465 1.203,-0.202 2.34,-0.424 3.328,-0.813 0.451,-0.13 0.871,-0.273 1.273,-0.422 l 0.824,1.164 c -0.449,0.286 -0.939,0.548 -1.479,0.77 -2.05,1.062 -4.644,1.821 -7.454,2.304"
           style="fill:#ffffff;fill-opacity:1;fill-rule:nonzero;stroke:none"
           id="path2856"
           inkscape:connector-curvature="0" /><path
           d="m 584.471,465.978 c -1.528,-0.958 -3.162,-2.407 -5.416,-3.531 -2.211,-1.174 -4.66,-2.576 -7.508,-3.781 -11.193,-5.197 -27.004,-10.063 -43.039,-13.791 -15.977,-4.033 -32.207,-7.038 -44.461,-8.66 -6.123,-0.827 -11.236,-1.464 -14.83,-1.779 -3.6,-0.273 -5.656,-0.429 -5.656,-0.429 0,0 2.064,0.067 5.671,0.187 3.6,0.206 8.768,0.473 14.916,1.245 12.305,1.451 28.614,4.21 44.698,8.033 16.039,3.977 31.836,9.09 43.035,14.49 2.855,1.225 5.273,2.761 7.439,4.038 2.217,1.224 3.844,2.786 5.326,3.807 1.426,1.107 2.243,2.305 2.944,2.965 0.656,0.709 1.008,1.088 1.008,1.088 0,0 -0.369,-0.361 -1.053,-1.042 -0.731,-0.632 -1.602,-1.798 -3.074,-2.84"
           style="fill:#ffffff;fill-opacity:1;fill-rule:nonzero;stroke:none"
           id="path2858"
           inkscape:connector-curvature="0" /><path
           d="m 577.33,430.035 c -1.635,-0.586 -3.684,-1.075 -6.06,-1.595 -2.35,-0.601 -5.071,-0.969 -7.989,-1.576 -11.75,-2.141 -27.621,-3.826 -43.519,-4.77 -7.938,-0.613 -15.895,-0.928 -23.36,-1.111 -7.463,-0.096 -14.433,0.003 -20.388,0.376 -2.969,0.286 -5.721,0.32 -8.119,0.65 -2.399,0.321 -4.516,0.499 -6.229,0.823 -3.408,0.731 -5.355,1.15 -5.355,1.15 0,0 1.929,-0.507 5.312,-1.389 1.701,-0.403 3.807,-0.673 6.207,-1.104 2.399,-0.446 5.143,-0.608 8.129,-0.907 5.975,-0.467 12.965,-0.674 20.455,-0.693 7.488,0.071 15.473,0.256 23.447,0.762 15.93,1.189 31.801,3.119 43.565,5.448 5.875,1.182 10.719,2.436 14,3.713 1.683,0.53 2.89,1.15 3.678,1.669 0.816,0.462 1.246,0.709 1.246,0.709 0,0 -0.442,-0.229 -1.274,-0.655 -0.808,-0.485 -2.058,-1.055 -3.746,-1.5"
           style="fill:#ffffff;fill-opacity:1;fill-rule:nonzero;stroke:none"
           id="path2860"
           inkscape:connector-curvature="0" /><path
           d="m 563.398,397.678 c -0.65,-0.488 -1.863,-0.754 -3.361,-0.969 -3.027,-0.434 -7.414,-0.241 -12.637,0.086 -10.468,0.693 -24.355,2.668 -38.123,5.195 -13.812,2.286 -27.545,5.114 -37.705,7.758 -5.076,1.338 -9.304,2.466 -12.191,3.497 -2.895,0.998 -4.475,1.775 -4.475,1.775 0,0 1.537,-0.855 4.389,-2.005 2.857,-1.132 6.994,-2.625 12.074,-4.019 10.147,-2.828 23.844,-5.909 37.658,-8.431 13.85,-2.294 27.797,-4.034 38.33,-4.549 5.26,-0.266 9.68,-0.09 12.717,0.452 1.506,0.301 2.713,0.619 3.369,1.164 0.688,0.455 0.735,1.002 0.793,0.948 -0.05,0.06 -0.132,-0.493 -0.838,-0.902"
           style="fill:#ffffff;fill-opacity:1;fill-rule:nonzero;stroke:none"
           id="path2862"
           inkscape:connector-curvature="0" /><path
           d="m 530.012,369.327 c -2.494,0.286 -5.924,1.415 -9.979,2.856 -8.109,2.923 -18.535,7.832 -28.795,13.057 -7.351,3.551 -14.609,7.26 -20.935,10.577 -2.594,1.361 -5.047,2.662 -7.26,3.851 -7.647,4.032 -12.746,6.721 -12.746,6.721 0,0 4.867,-3.096 12.369,-7.403 2.172,-1.224 4.578,-2.566 7.121,-3.969 6.277,-3.464 13.49,-7.344 20.809,-11.071 10.384,-5.03 20.957,-9.725 29.183,-12.5 4.102,-1.401 7.674,-2.18 10.209,-2.362 2.569,-0.26 3.914,0.482 3.914,0.48 0,0.002 -1.379,-0.651 -3.89,-0.237"
           style="fill:#ffffff;fill-opacity:1;fill-rule:nonzero;stroke:none"
           id="path2864"
           inkscape:connector-curvature="0" /><path
           d="m 508.814,347.851 c -2.099,1.082 -4.918,2.944 -8.32,5.129 -6.744,4.463 -15.57,10.691 -24.131,17.258 -4.306,3.244 -8.57,6.554 -12.427,9.81 -3.895,3.219 -7.461,6.311 -10.332,9.147 -1.499,1.366 -2.69,2.77 -3.829,3.955 -1.191,1.155 -1.869,2.388 -2.615,3.308 -0.799,0.893 -0.947,1.878 -1.264,2.422 -0.25,0.582 -0.384,0.892 -0.384,0.892 0,0 0.113,-0.316 0.324,-0.912 0.281,-0.562 0.361,-1.547 1.1,-2.498 0.679,-0.962 1.332,-2.322 2.441,-3.542 1.061,-1.268 2.18,-2.781 3.646,-4.194 2.809,-2.943 6.221,-6.256 10.102,-9.532 3.838,-3.328 8.08,-6.697 12.363,-10.007 8.655,-6.518 17.582,-12.648 24.571,-16.796 3.486,-2.095 6.484,-3.681 8.646,-4.657 1.094,-0.47 1.926,-0.895 2.57,-0.976 0.62,-0.145 0.946,-0.221 0.946,-0.221 0,0 -0.323,0.098 -0.934,0.283 -0.625,0.119 -1.426,0.596 -2.473,1.131"
           style="fill:#ffffff;fill-opacity:1;fill-rule:nonzero;stroke:none"
           id="path2866"
           inkscape:connector-curvature="0" /><path
           d="m 477.439,339.117 c -0.697,0.493 -1.65,0.889 -2.523,1.698 -0.906,0.762 -1.955,1.564 -2.982,2.597 -4.202,4.005 -9.252,9.927 -13.961,16.112 -3.522,4.494 -6.891,9.1 -9.78,13.114 -1.047,1.455 -2.033,2.835 -2.935,4.098 -3.416,4.743 -5.549,8.014 -5.549,8.014 0,0 1.77,-3.486 4.871,-8.462 1.027,-1.664 2.213,-3.498 3.5,-5.423 2.574,-3.846 5.586,-8.083 8.752,-12.226 4.807,-6.159 10.022,-12.055 14.561,-15.834 1.078,-1.006 2.232,-1.739 3.218,-2.418 0.952,-0.733 1.987,-1.065 2.725,-1.491 0.756,-0.414 1.482,-0.41 1.906,-0.559 0.446,-0.104 0.682,-0.158 0.682,-0.158 0,0 -0.229,0.074 -0.668,0.219 -0.414,0.193 -1.106,0.244 -1.817,0.719"
           style="fill:#ffffff;fill-opacity:1;fill-rule:nonzero;stroke:none"
           id="path2868"
           inkscape:connector-curvature="0" /><path
           d="m 433.389,377.16 v 0.842 c 0,0 -0.201,-0.292 -0.157,-0.837 0.067,-0.434 -0.136,-1.055 -0.06,-1.79 0.019,0.742 0.217,1.352 0.217,1.785"
           style="fill:#ffffff;fill-opacity:1;fill-rule:nonzero;stroke:none"
           id="path2870"
           inkscape:connector-curvature="0" /><path
           d="m 466.203,315.996 c -0.734,0.716 -1.74,1.426 -2.656,2.513 -0.912,1.081 -2.037,2.209 -3.07,3.617 -2.196,2.704 -4.448,6.092 -6.793,9.766 -2.375,3.655 -4.657,7.702 -6.903,11.78 -4.025,7.293 -7.568,14.816 -10.056,20.987 -0.291,0.724 -0.58,1.441 -0.842,2.126 -1.242,3.266 -1.998,6.037 -2.404,8.028 -0.053,0.195 -0.075,0.378 -0.094,0.562 -0.004,-0.186 -0.006,-0.376 0.033,-0.579 0.283,-2.037 0.48,-4.945 1.611,-8.275 0.358,-1.118 0.776,-2.301 1.221,-3.511 2.236,-6.062 5.514,-13.151 9.217,-20.034 4.547,-8.191 9.713,-16.068 14.375,-21.373 1.082,-1.387 2.326,-2.456 3.33,-3.47 1.006,-1.02 2.099,-1.679 2.883,-2.332 0.808,-0.636 1.627,-0.857 2.091,-1.136 0.491,-0.238 0.756,-0.365 0.756,-0.365 0,0 -0.252,0.148 -0.724,0.422 -0.451,0.317 -1.227,0.582 -1.975,1.274"
           style="fill:#ffffff;fill-opacity:1;fill-rule:nonzero;stroke:none"
           id="path2872"
           inkscape:connector-curvature="0" /><path
           d="m 444.938,305.342 c -0.928,0.572 -1.868,1.341 -2.792,2.325 -2.005,1.758 -3.826,4.35 -5.66,7.134 -1.857,2.79 -3.492,5.992 -5.039,9.223 -3.123,6.471 -5.549,13.277 -7.336,18.378 -1.791,5.112 -2.822,8.585 -2.822,8.585 0,0 0.623,-3.57 2.043,-8.822 1.422,-5.25 3.732,-12.15 6.805,-18.76 1.629,-3.255 3.353,-6.476 5.302,-9.299 0.961,-1.421 1.92,-2.772 3.022,-3.915 1.004,-1.216 2.047,-2.276 3.141,-3.13 0.988,-0.97 2.037,-1.666 3.058,-2.161 0.973,-0.556 1.799,-1.062 2.608,-1.205 1.529,-0.431 2.4,-0.683 2.4,-0.683 0,0 -0.842,0.334 -2.309,0.91 -0.769,0.207 -1.535,0.789 -2.421,1.42"
           style="fill:#ffffff;fill-opacity:1;fill-rule:nonzero;stroke:none"
           id="path2874"
           inkscape:connector-curvature="0" /><path
           d="m 421.783,289.867 c -0.74,1 -1.578,2.125 -2.49,3.36 -3.428,5.082 -7.148,12.435 -9.871,20.147 -1.342,3.855 -2.567,7.771 -3.26,11.532 -0.404,1.873 -0.687,3.691 -0.859,5.434 -0.301,1.738 -0.158,3.386 -0.229,4.916 0.084,1.513 0.295,2.894 0.446,4.124 0.386,1.15 0.662,2.204 1,3.031 0.984,1.513 1.546,2.377 1.546,2.377 0,0 -0.63,-0.814 -1.74,-2.236 -0.414,-0.796 -0.801,-1.845 -1.308,-3.038 -0.272,-1.234 -0.614,-2.649 -0.754,-4.208 -0.006,-1.559 -0.229,-3.27 -0.012,-5.048 0.098,-1.795 0.271,-3.675 0.678,-5.584 0.648,-3.852 1.828,-7.847 3.131,-11.788 1.478,-3.877 3.072,-7.715 4.918,-11.144 0.847,-1.75 1.857,-3.344 2.8,-4.857 0.891,-1.543 1.983,-2.854 2.854,-4.139 1.877,-2.502 3.812,-4.258 5.205,-5.416 1.537,-0.961 2.412,-1.51 2.412,-1.51 0,0 -0.818,0.618 -2.252,1.694 -0.615,0.654 -1.361,1.443 -2.215,2.353"
           style="fill:#ffffff;fill-opacity:1;fill-rule:nonzero;stroke:none"
           id="path2876"
           inkscape:connector-curvature="0" /><path
           d="m 396.932,282.988 c -0.45,0.45 -0.932,0.938 -1.45,1.457 -1.048,1.024 -2.23,2.159 -3.15,3.717 -0.496,0.74 -1.018,1.51 -1.557,2.311 -0.4,0.879 -0.81,1.785 -1.236,2.72 -0.988,1.805 -1.334,3.987 -2.068,6.09 -0.418,2.197 -0.95,4.465 -1.116,6.814 -0.209,2.354 -0.365,4.739 -0.263,7.143 -0.047,4.801 0.537,9.597 1.318,14.034 0.84,4.428 1.801,8.547 3.004,11.957 1.135,3.436 2.359,6.184 3.359,8.046 1.098,1.81 1.813,2.797 1.813,2.797 0,0 -0.783,-0.93 -2.01,-2.655 -1.119,-1.813 -2.656,-4.48 -3.926,-7.915 -1.33,-3.405 -2.566,-7.51 -3.474,-11.994 -0.852,-4.495 -1.512,-9.355 -1.533,-14.257 -0.075,-2.45 0.123,-4.894 0.369,-7.295 0.203,-2.403 0.775,-4.735 1.24,-6.981 0.758,-2.182 1.23,-4.383 2.328,-6.227 0.477,-0.941 0.941,-1.857 1.389,-2.744 0.592,-0.805 1.162,-1.582 1.707,-2.326 0.996,-1.575 2.306,-2.664 3.457,-3.621 0.56,-0.489 1.088,-0.948 1.574,-1.37 0.564,-0.31 1.084,-0.595 1.553,-0.857 1.863,-1.019 2.924,-1.605 2.924,-1.605 0,0 -1.014,0.658 -2.793,1.812 -0.44,0.285 -0.928,0.604 -1.459,0.949"
           style="fill:#ffffff;fill-opacity:1;fill-rule:nonzero;stroke:none"
           id="path2878"
           inkscape:connector-curvature="0" /><path
           d="m 376.742,266.105 c -1.211,0.915 -2.066,2.459 -3.301,3.819 -0.867,1.639 -2.103,3.256 -2.779,5.289 -0.863,1.949 -1.517,4.088 -2.084,6.346 -0.607,2.238 -0.957,4.63 -1.295,7.046 -0.236,2.434 -0.484,4.907 -0.467,7.401 -0.201,4.973 0.172,9.961 0.748,14.602 0.643,4.627 1.338,8.953 2.327,12.575 0.882,3.645 1.795,6.631 2.548,8.699 0.76,2.063 1.198,3.24 1.198,3.24 0,0 -0.516,-1.146 -1.42,-3.15 -0.865,-2.002 -2.096,-4.935 -3.112,-8.577 -1.113,-3.617 -2.08,-7.937 -2.783,-12.619 -0.642,-4.69 -1.09,-9.739 -0.951,-14.805 0.008,-2.535 0.299,-5.055 0.57,-7.537 0.379,-2.463 0.768,-4.899 1.42,-7.192 0.592,-2.316 1.366,-4.484 2.336,-6.459 0.778,-2.047 2.125,-3.701 3.078,-5.332 1.321,-1.385 2.305,-2.883 3.62,-3.738 1.289,-0.861 2.238,-1.863 3.302,-2.233 2.01,-0.904 3.157,-1.419 3.157,-1.419 0,0 -1.104,0.593 -3.034,1.63 -1.015,0.428 -1.892,1.498 -3.078,2.414"
           style="fill:#ffffff;fill-opacity:1;fill-rule:nonzero;stroke:none"
           id="path2880"
           inkscape:connector-curvature="0" /><path
           d="m 349.645,262.008 c -0.483,1.361 -0.915,2.92 -1.118,4.695 -0.347,1.738 -0.593,3.639 -0.611,5.684 -0.164,2.025 -0.111,4.17 -0.025,6.39 -0.01,2.223 0.271,4.512 0.484,6.832 0.16,2.33 0.645,4.668 0.949,7.022 1.405,9.402 3.83,18.639 5.686,25.544 1.873,6.901 3.353,11.449 3.353,11.449 0,0 -1.877,-4.402 -4.133,-11.218 -1.103,-3.412 -2.335,-7.418 -3.441,-11.769 -1.09,-4.358 -2.103,-9.045 -2.893,-13.78 -0.283,-2.384 -0.734,-4.744 -0.869,-7.109 -0.179,-2.361 -0.429,-4.676 -0.392,-6.939 -0.08,-2.254 -0.026,-4.438 0.224,-6.5 0.106,-2.071 0.44,-4.002 0.864,-5.764 0.267,-1.799 0.832,-3.363 1.429,-4.715 0.526,-1.375 0.973,-2.568 1.649,-3.404 1.154,-1.744 1.812,-2.744 1.812,-2.744 0,0 -0.584,1.041 -1.599,2.863 -0.598,0.861 -0.955,2.078 -1.369,3.463"
           style="fill:#ffffff;fill-opacity:1;fill-rule:nonzero;stroke:none"
           id="path2882"
           inkscape:connector-curvature="0" /><path
           d="m 329.045,280.285 c 0.055,1.133 -0.086,2.391 0.076,3.774 0.209,2.763 0.758,5.962 1.588,9.343 0.746,3.397 1.844,6.952 2.982,10.493 2.254,7.088 5.036,14.01 7.262,19.132 1.135,2.553 2.108,4.67 2.889,6.095 0.783,1.435 1.324,2.205 1.324,2.205 0,-0.003 -2.408,-2.905 -4.945,-7.95 -2.6,-4.991 -5.535,-11.912 -7.908,-19.039 -1.094,-3.592 -2.131,-7.207 -2.834,-10.666 -0.79,-3.44 -1.081,-6.752 -1.174,-9.582 -0.108,-2.846 0.443,-5.192 0.951,-6.76 0.767,-1.469 1.281,-2.242 1.281,-2.242 0,0 -0.447,0.844 -1.049,2.324 -0.115,0.805 -0.359,1.76 -0.443,2.873"
           style="fill:#ffffff;fill-opacity:1;fill-rule:nonzero;stroke:none"
           id="path2884"
           inkscape:connector-curvature="0" /><path
           d="m 311.748,296.891 c 0.752,0.642 1.75,1.24 2.537,2.183 0.807,0.916 1.834,1.799 2.651,2.938 0.841,1.121 1.837,2.242 2.601,3.568 1.674,2.561 3.277,5.413 4.66,8.358 2.739,5.914 4.819,12.081 6.035,16.792 1.229,4.708 1.741,7.91 1.741,7.91 0,0 -0.924,-3.109 -2.518,-7.674 -1.582,-4.566 -3.779,-10.631 -6.568,-16.41 -2.666,-5.829 -6.014,-11.335 -9.194,-14.921 -0.732,-0.963 -1.615,-1.623 -2.277,-2.342 -0.672,-0.725 -1.348,-1.238 -1.936,-1.621 -1.156,-0.817 -1.814,-1.285 -1.814,-1.285 0,0 0.707,0.392 1.945,1.084 0.643,0.32 1.385,0.765 2.137,1.42"
           style="fill:#ffffff;fill-opacity:1;fill-rule:nonzero;stroke:none"
           id="path2886"
           inkscape:connector-curvature="0" /><path
           d="m 476.834,439.73 c 1.967,1.148 3.092,1.806 3.092,1.806 0,0 -1.276,-0.271 -3.508,-0.735 -2.221,-0.338 -5.314,-0.725 -9.15,-1.04 -7.61,-0.626 -17.872,-1.14 -28.176,-2.911 -5.127,-0.926 -10.266,-2.101 -14.944,-3.743 -2.351,-0.787 -4.584,-1.656 -6.632,-2.675 -2.1,-0.873 -3.965,-1.986 -5.657,-3.037 -1.744,-0.943 -3.16,-2.139 -4.421,-3.13 -1.305,-0.936 -2.321,-1.911 -3.092,-2.778 -1.547,-1.681 -2.434,-2.643 -2.434,-2.643 0,0 1.137,0.626 3.129,1.724 0.941,0.6 2.15,1.204 3.58,1.822 1.408,0.636 2.938,1.417 4.734,2.03 3.491,1.393 7.684,2.657 12.239,3.792 2.25,0.646 4.687,0.982 7.078,1.591 2.445,0.449 4.9,0.978 7.414,1.343 9.967,1.759 20.193,3.246 27.771,5.356 3.772,0.99 6.897,2.252 8.977,3.228"
           style="fill:#ffffff;fill-opacity:1;fill-rule:nonzero;stroke:none"
           id="path2888"
           inkscape:connector-curvature="0" /><path
           d="m 421.619,414.611 c -2.025,-0.087 -4.055,-0.322 -6.053,-0.571 -1.998,-0.215 -3.943,-0.754 -5.82,-1.178 -3.721,-1.078 -7.152,-2.387 -9.746,-4.177 -1.361,-0.751 -2.463,-1.684 -3.389,-2.545 -0.976,-0.793 -1.73,-1.577 -2.257,-2.322 -1.112,-1.42 -1.665,-2.234 -1.665,-2.234 0,0 0.874,0.49 2.401,1.347 0.699,0.482 1.658,0.896 2.738,1.353 1.055,0.498 2.246,1.002 3.617,1.405 1.323,0.491 2.805,0.858 4.375,1.224 1.535,0.457 3.276,0.574 4.979,0.956 3.512,0.422 7.252,0.9 11.086,0.956 3.81,0.258 7.67,0.216 11.316,0.295 3.643,0.042 7.084,0.071 10.051,0.208 5.957,0.145 9.959,0.99 9.959,0.988 0.004,0 -3.877,1.093 -9.69,2.315 -5.828,1.182 -13.769,2.355 -21.902,1.98"
           style="fill:#ffffff;fill-opacity:1;fill-rule:nonzero;stroke:none"
           id="path2890"
           inkscape:connector-curvature="0" /><path
           d="m 410.941,399.587 c -4.117,0.413 -8.279,0.725 -12.226,0.421 -1.961,0 -3.887,-0.444 -5.672,-0.665 -1.799,-0.404 -3.484,-0.802 -4.994,-1.379 -1.494,-0.678 -2.893,-1.084 -3.965,-1.924 -1.084,-0.776 -2.072,-1.306 -2.678,-2.052 -1.254,-1.419 -1.851,-2.213 -1.851,-2.213 0,0 0.91,0.458 2.502,1.262 0.718,0.445 1.847,0.568 2.922,0.973 1.07,0.431 2.501,0.407 3.867,0.724 1.425,0.176 3.025,0.173 4.656,0.306 1.689,-0.08 3.414,0.005 5.254,-0.135 3.646,-0.191 7.572,-0.559 11.496,-1.067 7.863,-0.906 15.814,-2.133 21.894,-2.693 6.081,-0.674 10.266,-0.428 10.266,-0.433 0,0 -3.789,1.655 -9.558,3.669 -5.784,1.994 -13.69,4.213 -21.913,5.206"
           style="fill:#ffffff;fill-opacity:1;fill-rule:nonzero;stroke:none"
           id="path2892"
           inkscape:connector-curvature="0" /><path
           d="m 415.07,381.21 c -4.48,2.005 -10.75,3.947 -17.242,4.951 -3.248,0.459 -6.549,0.733 -9.656,0.652 -3.111,-0.105 -6.029,-0.424 -8.453,-1.147 -1.223,-0.283 -2.309,-0.666 -3.235,-1.143 -0.927,-0.428 -1.742,-0.745 -2.338,-1.195 -1.216,-0.817 -1.839,-1.319 -1.839,-1.319 0,0 0.834,0.174 2.166,0.536 1.34,0.351 3.306,0.595 5.636,0.657 4.657,0.201 10.866,-0.334 17.073,-1.336 6.213,-0.928 12.445,-2.105 17.142,-3.023 4.715,-0.842 7.881,-1.643 7.881,-1.643 0,0 -0.617,0.544 -1.851,1.28 -1.256,0.721 -3.028,1.766 -5.284,2.73"
           style="fill:#ffffff;fill-opacity:1;fill-rule:nonzero;stroke:none"
           id="path2894"
           inkscape:connector-curvature="0" /><path
           d="m 380.92,374.921 c -2.789,1.102 -5.695,1.969 -8.498,2.483 -2.815,0.452 -5.514,0.573 -7.795,0.229 -1.15,-0.067 -2.168,-0.34 -3.049,-0.695 -0.883,-0.285 -1.637,-0.543 -2.193,-0.931 -1.114,-0.687 -1.748,-1.08 -1.748,-1.08 0,0 0.713,0.202 1.953,0.556 0.584,0.244 1.359,0.323 2.23,0.4 0.86,0.14 1.83,0.176 2.899,0.124 1.06,0.045 2.209,-0.111 3.414,-0.308 1.205,-0.108 2.449,-0.565 3.752,-0.79 2.574,-0.715 5.31,-1.564 7.97,-2.682 5.356,-2.128 10.627,-4.644 14.6,-6.554 1.973,-0.978 3.688,-1.685 4.867,-2.235 1.194,-0.513 1.901,-0.748 1.901,-0.748 0,0 -2.315,1.851 -5.957,4.392 -3.651,2.514 -8.745,5.647 -14.346,7.839"
           style="fill:#ffffff;fill-opacity:1;fill-rule:nonzero;stroke:none"
           id="path2896"
           inkscape:connector-curvature="0" /><path
           d="m 362.465,365.583 c -2.787,1.102 -5.695,1.969 -8.498,2.484 -2.815,0.452 -5.514,0.573 -7.795,0.228 -1.149,-0.067 -2.168,-0.341 -3.047,-0.695 -0.883,-0.287 -1.639,-0.542 -2.193,-0.93 -1.114,-0.689 -1.748,-1.081 -1.748,-1.081 0,0 0.711,0.202 1.953,0.557 0.584,0.242 1.359,0.322 2.228,0.4 0.862,0.139 1.83,0.174 2.899,0.124 1.06,0.044 2.209,-0.11 3.416,-0.309 1.205,-0.109 2.449,-0.565 3.752,-0.791 2.574,-0.715 5.308,-1.565 7.968,-2.682 5.356,-2.127 10.627,-4.642 14.602,-6.553 1.971,-0.979 3.687,-1.686 4.867,-2.234 1.192,-0.515 1.899,-0.751 1.899,-0.751 0,0 -2.313,1.854 -5.955,4.394 -3.653,2.515 -8.747,5.646 -14.348,7.839"
           style="fill:#ffffff;fill-opacity:1;fill-rule:nonzero;stroke:none"
           id="path2898"
           inkscape:connector-curvature="0" /><path
           d="m 322.018,359.35 c 1.06,0.044 2.209,-0.111 3.414,-0.309 1.207,-0.107 2.451,-0.564 3.752,-0.79 2.574,-0.716 5.31,-1.563 7.968,-2.682 5.358,-2.129 10.629,-4.642 14.602,-6.553 1.973,-0.978 3.687,-1.685 4.869,-2.235 1.191,-0.514 1.898,-0.748 1.898,-0.748 0,0 -2.312,1.851 -5.955,4.392 -3.652,2.513 -8.746,5.645 -14.347,7.839 -2.789,1.103 -5.696,1.969 -8.498,2.483 -2.815,0.452 -5.514,0.573 -7.797,0.231 -0.459,-0.029 -0.893,-0.096 -1.311,-0.181 l 0.422,-1.441 c 0.324,0.001 0.639,0.011 0.983,-0.006"
           style="fill:#ffffff;fill-opacity:1;fill-rule:nonzero;stroke:none"
           id="path2900"
           inkscape:connector-curvature="0" /><path
           d="m 315.736,450.349 c 0.018,1.035 0.047,2.089 0.051,3.104 0.018,5.392 -0.279,10.493 -0.848,15.215 -0.47,3.913 -1.126,7.564 -1.96,10.882 -1.125,4.47 -2.563,8.346 -4.272,11.473 -0.445,0.822 -0.904,1.573 -1.371,2.282 -1.875,2.853 -3.872,4.828 -5.481,5.998 -0.931,0.835 -1.817,1.204 -2.342,1.564 -0.545,0.332 -0.825,0.503 -0.825,0.503 0,0 0.266,-0.193 0.783,-0.567 0.487,-0.405 1.351,-0.851 2.191,-1.748 1.567,-1.319 3.414,-3.582 5.11,-6.706 0.316,-0.582 0.63,-1.186 0.935,-1.831 1.547,-3.217 2.703,-7.198 3.512,-11.774 0.131,-0.73 0.25,-1.476 0.361,-2.236 0.979,-6.675 1.272,-14.478 0.957,-23.002 -0.209,-6.28 -0.801,-12.977 -1.652,-19.971 -1.006,-8.254 -2.385,-16.93 -4.007,-25.915 -0.426,-2.363 -0.868,-4.746 -1.325,-7.148 -3.129,-16.553 -7.179,-33.922 -11.683,-51.328 -0.744,-2.87 -1.495,-5.742 -2.262,-8.612 -1.107,-4.358 -2.241,-8.711 -3.388,-13.049 -1.813,-6.85 -3.664,-13.652 -5.538,-20.37 -0.551,-1.979 -1.104,-3.953 -1.659,-5.914 -1.925,-6.824 -3.864,-13.545 -5.786,-20.101 -0.639,-2.194 -1.273,-4.366 -1.902,-6.526 -0.962,-3.304 -1.909,-6.551 -2.844,-9.761 -1.326,-4.549 -2.622,-8.997 -3.883,-13.319 -0.275,-0.949 -0.552,-1.898 -0.825,-2.836 -1.971,-6.76 -3.853,-13.215 -5.613,-19.25 -4.492,-15.117 -7.892,-27.826 -10.263,-36.726 -2.343,-8.914 -3.185,-14.119 -3.185,-14.119 0.003,0 1.342,5.087 4.268,13.8 2.967,8.707 7.206,21.141 12.293,36.065 1.225,3.689 2.514,7.533 3.85,11.504 1.592,4.734 3.249,9.674 4.934,14.761 2.179,6.586 4.404,13.444 6.608,20.528 0.459,1.474 0.919,2.941 1.376,4.435 2.052,6.69 4.124,13.551 6.187,20.522 3.755,12.69 7.477,25.758 10.97,38.902 4.949,19.51 9.416,39.146 12.804,57.861 0.16,0.876 0.328,1.76 0.48,2.632 1.754,9.847 3.071,19.437 3.955,28.57 0.754,7.788 1.174,15.216 1.289,22.208"
           style="fill:#ffffff;fill-opacity:1;fill-rule:nonzero;stroke:none"
           id="path2902"
           inkscape:connector-curvature="0" /></g></g></g></svg>